<?xml version="1.0" encoding="UTF-8" standalone="no"?>
<!-- Created with Inkscape (http://www.inkscape.org/) -->

<svg
   xmlns:dc="http://purl.org/dc/elements/1.1/"
   xmlns:cc="http://creativecommons.org/ns#"
   xmlns:rdf="http://www.w3.org/1999/02/22-rdf-syntax-ns#"
   xmlns:svg="http://www.w3.org/2000/svg"
   xmlns="http://www.w3.org/2000/svg"
   xmlns:xlink="http://www.w3.org/1999/xlink"
   xmlns:sodipodi="http://sodipodi.sourceforge.net/DTD/sodipodi-0.dtd"
   xmlns:inkscape="http://www.inkscape.org/namespaces/inkscape"
   width="224.68253mm"
   height="52.395065mm"
   viewBox="0 0 796.11919 185.65181"
   id="svg3443"
   version="1.1"
   inkscape:version="0.91 r13725"
   sodipodi:docname="multiple_arrays_scheme_new.svg">
  <sodipodi:namedview
     id="base"
     pagecolor="#ffffff"
     bordercolor="#666666"
     borderopacity="1.0"
     inkscape:pageopacity="0.0"
     inkscape:pageshadow="2"
     inkscape:zoom="0.99928036"
     inkscape:cx="403.15252"
     inkscape:cy="284.66768"
     inkscape:document-units="px"
     inkscape:current-layer="layer1"
     showgrid="true"
     inkscape:snap-grids="true"
     inkscape:snap-page="true"
     inkscape:snap-object-midpoints="false"
     inkscape:window-width="1855"
     inkscape:window-height="1056"
     inkscape:window-x="65"
     inkscape:window-y="24"
     inkscape:window-maximized="1"
     showguides="false"
     fit-margin-top="0"
     fit-margin-left="0"
     fit-margin-right="0"
     fit-margin-bottom="0">
    <inkscape:grid
       type="xygrid"
       id="grid3453"
       originx="-9.7679574"
       originy="-603.727" />
  </sodipodi:namedview>
  <defs
     id="defs3445">
    <linearGradient
       inkscape:collect="always"
       id="linearGradient4607">
      <stop
         style="stop-color:#000000;stop-opacity:1;"
         offset="0"
         id="stop4609" />
      <stop
         style="stop-color:#000000;stop-opacity:0;"
         offset="1"
         id="stop4611" />
    </linearGradient>
    <marker
       inkscape:stockid="Arrow1Mend"
       orient="auto"
       refY="0"
       refX="0"
       id="marker18393"
       style="overflow:visible"
       inkscape:isstock="true">
      <path
         id="path18395"
         d="M 0,0 5,-5 -12.5,0 5,5 0,0 Z"
         style="fill:#31bd18;fill-opacity:1;fill-rule:evenodd;stroke:#31bd18;stroke-width:1pt;stroke-opacity:1"
         transform="matrix(-0.4,0,0,-0.4,-4,0)"
         inkscape:connector-curvature="0" />
    </marker>
    <marker
       inkscape:stockid="Arrow2Lend"
       orient="auto"
       refY="0"
       refX="0"
       id="marker18329"
       style="overflow:visible"
       inkscape:isstock="true">
      <path
         id="path18331"
         style="fill:#000000;fill-opacity:1;fill-rule:evenodd;stroke:#000000;stroke-width:0.625;stroke-linejoin:round;stroke-opacity:1"
         d="M 8.7185878,4.0337352 -2.2072895,0.01601326 8.7185884,-4.0017078 c -1.7454984,2.3720609 -1.7354408,5.6174519 -6e-7,8.035443 z"
         transform="matrix(-1.1,0,0,-1.1,-1.1,0)"
         inkscape:connector-curvature="0" />
    </marker>
    <marker
       inkscape:stockid="Arrow2Lend"
       orient="auto"
       refY="0"
       refX="0"
       id="marker4685"
       style="overflow:visible"
       inkscape:isstock="true">
      <path
         id="path4687"
         style="fill:#000000;fill-opacity:1;fill-rule:evenodd;stroke:#000000;stroke-width:0.625;stroke-linejoin:round;stroke-opacity:1"
         d="M 8.7185878,4.0337352 -2.2072895,0.01601326 8.7185884,-4.0017078 c -1.7454984,2.3720609 -1.7354408,5.6174519 -6e-7,8.035443 z"
         transform="matrix(-1.1,0,0,-1.1,-1.1,0)"
         inkscape:connector-curvature="0" />
    </marker>
    <marker
       inkscape:stockid="Arrow1Lend"
       orient="auto"
       refY="0"
       refX="0"
       id="Arrow1Lend"
       style="overflow:visible"
       inkscape:isstock="true">
      <path
         id="path4200"
         d="M 0,0 5,-5 -12.5,0 5,5 0,0 Z"
         style="fill:#000000;fill-opacity:1;fill-rule:evenodd;stroke:#000000;stroke-width:1pt;stroke-opacity:1"
         transform="matrix(-0.8,0,0,-0.8,-10,0)"
         inkscape:connector-curvature="0" />
    </marker>
    <marker
       inkscape:stockid="Arrow2Lend"
       orient="auto"
       refY="0"
       refX="0"
       id="Arrow2Lend"
       style="overflow:visible"
       inkscape:isstock="true">
      <path
         id="path4218"
         style="fill:#31bd18;fill-opacity:1;fill-rule:evenodd;stroke:#31bd18;stroke-width:0.625;stroke-linejoin:round;stroke-opacity:1"
         d="M 8.7185878,4.0337352 -2.2072895,0.01601326 8.7185884,-4.0017078 c -1.7454984,2.3720609 -1.7354408,5.6174519 -6e-7,8.035443 z"
         transform="matrix(-1.1,0,0,-1.1,-1.1,0)"
         inkscape:connector-curvature="0" />
    </marker>
    <marker
       inkscape:stockid="Arrow1Lstart"
       orient="auto"
       refY="0"
       refX="0"
       id="Arrow1Lstart"
       style="overflow:visible"
       inkscape:isstock="true">
      <path
         id="path4197"
         d="M 0,0 5,-5 -12.5,0 5,5 0,0 Z"
         style="fill:#000000;fill-opacity:1;fill-rule:evenodd;stroke:#000000;stroke-width:1pt;stroke-opacity:1"
         transform="matrix(0.8,0,0,0.8,10,0)"
         inkscape:connector-curvature="0" />
    </marker>
    <inkscape:path-effect
       effect="spiro"
       id="path-effect5973"
       is_visible="true" />
    <marker
       inkscape:stockid="Arrow2Lend"
       orient="auto"
       refY="0"
       refX="0"
       id="marker4685-9"
       style="overflow:visible"
       inkscape:isstock="true">
      <path
         inkscape:connector-curvature="0"
         id="path4687-2"
         style="fill:#000000;fill-opacity:1;fill-rule:evenodd;stroke:#000000;stroke-width:0.625;stroke-linejoin:round;stroke-opacity:1"
         d="M 8.7185878,4.0337352 -2.2072895,0.01601326 8.7185884,-4.0017078 c -1.7454984,2.3720609 -1.7354408,5.6174519 -6e-7,8.035443 z"
         transform="matrix(-1.1,0,0,-1.1,-1.1,0)" />
    </marker>
    <marker
       inkscape:stockid="Arrow1Mend"
       orient="auto"
       refY="0"
       refX="0"
       id="Arrow1Mend-2"
       style="overflow:visible"
       inkscape:isstock="true">
      <path
         inkscape:connector-curvature="0"
         id="path4206-8"
         d="M 0,0 5,-5 -12.5,0 5,5 0,0 Z"
         style="fill:#31bd18;fill-opacity:1;fill-rule:evenodd;stroke:#31bd18;stroke-width:1pt;stroke-opacity:1"
         transform="matrix(-0.4,0,0,-0.4,-4,0)" />
    </marker>
    <marker
       inkscape:stockid="Arrow1Mend"
       orient="auto"
       refY="0"
       refX="0"
       id="Arrow1Mend"
       style="overflow:visible"
       inkscape:isstock="true">
      <path
         inkscape:connector-curvature="0"
         id="path4206"
         d="M 0,0 5,-5 -12.5,0 5,5 0,0 Z"
         style="fill:#31bd18;fill-opacity:1;fill-rule:evenodd;stroke:#31bd18;stroke-width:1pt;stroke-opacity:1"
         transform="matrix(-0.4,0,0,-0.4,-4,0)" />
    </marker>
    <linearGradient
       inkscape:collect="always"
       xlink:href="#linearGradient4607"
       id="linearGradient4719"
       gradientUnits="userSpaceOnUse" />
    <linearGradient
       inkscape:collect="always"
       xlink:href="#linearGradient4607"
       id="linearGradient4755"
       gradientUnits="userSpaceOnUse" />
    <marker
       inkscape:stockid="Arrow1Mend"
       orient="auto"
       refY="0"
       refX="0"
       id="marker18393-7"
       style="overflow:visible"
       inkscape:isstock="true">
      <path
         id="path18395-5"
         d="M 0,0 5,-5 -12.5,0 5,5 0,0 Z"
         style="fill:#31bd18;fill-opacity:1;fill-rule:evenodd;stroke:#31bd18;stroke-width:1pt;stroke-opacity:1"
         transform="matrix(-0.4,0,0,-0.4,-4,0)"
         inkscape:connector-curvature="0" />
    </marker>
    <marker
       inkscape:stockid="Arrow1Mend"
       orient="auto"
       refY="0"
       refX="0"
       id="marker18393-73"
       style="overflow:visible"
       inkscape:isstock="true">
      <path
         id="path18395-6"
         d="M 0,0 5,-5 -12.5,0 5,5 0,0 Z"
         style="fill:#ff6d02;fill-opacity:1;fill-rule:evenodd;stroke:#ff6d02;stroke-width:1pt;stroke-opacity:1"
         transform="matrix(-0.4,0,0,-0.4,-4,0)"
         inkscape:connector-curvature="0" />
    </marker>
    <marker
       inkscape:stockid="Arrow1Mend"
       orient="auto"
       refY="0"
       refX="0"
       id="marker18393-73-3"
       style="overflow:visible"
       inkscape:isstock="true">
      <path
         id="path18395-6-6"
         d="M 0,0 5,-5 -12.5,0 5,5 0,0 Z"
         style="fill:#ff6d02;fill-opacity:1;fill-rule:evenodd;stroke:#ff6d02;stroke-width:1pt;stroke-opacity:1"
         transform="matrix(-0.4,0,0,-0.4,-4,0)"
         inkscape:connector-curvature="0" />
    </marker>
    <marker
       inkscape:stockid="Arrow1Mend"
       orient="auto"
       refY="0"
       refX="0"
       id="marker18393-73-3-2"
       style="overflow:visible"
       inkscape:isstock="true">
      <path
         id="path18395-6-6-9"
         d="M 0,0 5,-5 -12.5,0 5,5 0,0 Z"
         style="fill:#ff6d02;fill-opacity:1;fill-rule:evenodd;stroke:#ff6d02;stroke-width:1pt;stroke-opacity:1"
         transform="matrix(-0.4,0,0,-0.4,-4,0)"
         inkscape:connector-curvature="0" />
    </marker>
    <marker
       inkscape:stockid="Arrow1Mend"
       orient="auto"
       refY="0"
       refX="0"
       id="marker18393-73-1"
       style="overflow:visible"
       inkscape:isstock="true">
      <path
         id="path18395-6-2"
         d="M 0,0 5,-5 -12.5,0 5,5 0,0 Z"
         style="fill:#ff6d02;fill-opacity:1;fill-rule:evenodd;stroke:#ff6d02;stroke-width:1pt;stroke-opacity:1"
         transform="matrix(-0.4,0,0,-0.4,-4,0)"
         inkscape:connector-curvature="0" />
    </marker>
    <marker
       inkscape:stockid="Arrow1Mend"
       orient="auto"
       refY="0"
       refX="0"
       id="marker18393-73-3-9"
       style="overflow:visible"
       inkscape:isstock="true">
      <path
         id="path18395-6-6-2"
         d="M 0,0 5,-5 -12.5,0 5,5 0,0 Z"
         style="fill:#ff6d02;fill-opacity:1;fill-rule:evenodd;stroke:#ff6d02;stroke-width:1pt;stroke-opacity:1"
         transform="matrix(-0.4,0,0,-0.4,-4,0)"
         inkscape:connector-curvature="0" />
    </marker>
    <marker
       inkscape:stockid="Arrow1Mend"
       orient="auto"
       refY="0"
       refX="0"
       id="marker18393-73-0"
       style="overflow:visible"
       inkscape:isstock="true">
      <path
         id="path18395-6-23"
         d="M 0,0 5,-5 -12.5,0 5,5 0,0 Z"
         style="fill:#ff6d02;fill-opacity:1;fill-rule:evenodd;stroke:#ff6d02;stroke-width:1pt;stroke-opacity:1"
         transform="matrix(-0.4,0,0,-0.4,-4,0)"
         inkscape:connector-curvature="0" />
    </marker>
    <marker
       inkscape:stockid="Arrow1Mend"
       orient="auto"
       refY="0"
       refX="0"
       id="marker18393-73-3-93"
       style="overflow:visible"
       inkscape:isstock="true">
      <path
         id="path18395-6-6-1"
         d="M 0,0 5,-5 -12.5,0 5,5 0,0 Z"
         style="fill:#ff6d02;fill-opacity:1;fill-rule:evenodd;stroke:#ff6d02;stroke-width:1pt;stroke-opacity:1"
         transform="matrix(-0.4,0,0,-0.4,-4,0)"
         inkscape:connector-curvature="0" />
    </marker>
    <marker
       inkscape:stockid="Arrow1Mend"
       orient="auto"
       refY="0"
       refX="0"
       id="marker18393-73-9"
       style="overflow:visible"
       inkscape:isstock="true">
      <path
         id="path18395-6-4"
         d="M 0,0 5,-5 -12.5,0 5,5 0,0 Z"
         style="fill:#ff6d02;fill-opacity:1;fill-rule:evenodd;stroke:#ff6d02;stroke-width:1pt;stroke-opacity:1"
         transform="matrix(-0.4,0,0,-0.4,-4,0)"
         inkscape:connector-curvature="0" />
    </marker>
    <marker
       inkscape:stockid="Arrow1Mend"
       orient="auto"
       refY="0"
       refX="0"
       id="marker18393-73-3-1"
       style="overflow:visible"
       inkscape:isstock="true">
      <path
         id="path18395-6-6-5"
         d="M 0,0 5,-5 -12.5,0 5,5 0,0 Z"
         style="fill:#ff6d02;fill-opacity:1;fill-rule:evenodd;stroke:#ff6d02;stroke-width:1pt;stroke-opacity:1"
         transform="matrix(-0.4,0,0,-0.4,-4,0)"
         inkscape:connector-curvature="0" />
    </marker>
    <marker
       inkscape:stockid="Arrow1Mend"
       orient="auto"
       refY="0"
       refX="0"
       id="marker18393-73-5"
       style="overflow:visible"
       inkscape:isstock="true">
      <path
         id="path18395-6-47"
         d="M 0,0 5,-5 -12.5,0 5,5 0,0 Z"
         style="fill:#ff6d02;fill-opacity:1;fill-rule:evenodd;stroke:#ff6d02;stroke-width:1pt;stroke-opacity:1"
         transform="matrix(-0.4,0,0,-0.4,-4,0)"
         inkscape:connector-curvature="0" />
    </marker>
    <marker
       inkscape:stockid="Arrow1Mend"
       orient="auto"
       refY="0"
       refX="0"
       id="marker18393-73-3-4"
       style="overflow:visible"
       inkscape:isstock="true">
      <path
         id="path18395-6-6-3"
         d="M 0,0 5,-5 -12.5,0 5,5 0,0 Z"
         style="fill:#ff6d02;fill-opacity:1;fill-rule:evenodd;stroke:#ff6d02;stroke-width:1pt;stroke-opacity:1"
         transform="matrix(-0.4,0,0,-0.4,-4,0)"
         inkscape:connector-curvature="0" />
    </marker>
    <marker
       inkscape:stockid="Arrow1Mend"
       orient="auto"
       refY="0"
       refX="0"
       id="marker18393-73-07"
       style="overflow:visible"
       inkscape:isstock="true">
      <path
         id="path18395-6-8"
         d="M 0,0 5,-5 -12.5,0 5,5 0,0 Z"
         style="fill:#ff6d02;fill-opacity:1;fill-rule:evenodd;stroke:#ff6d02;stroke-width:1pt;stroke-opacity:1"
         transform="matrix(-0.4,0,0,-0.4,-4,0)"
         inkscape:connector-curvature="0" />
    </marker>
    <marker
       inkscape:stockid="Arrow2Lend"
       orient="auto"
       refY="0"
       refX="0"
       id="marker20512-3"
       style="overflow:visible"
       inkscape:isstock="true">
      <path
         id="path20514-1"
         style="fill:#0705ff;fill-opacity:1;fill-rule:evenodd;stroke:#0705ff;stroke-width:0.625;stroke-linejoin:round;stroke-opacity:1"
         d="M 8.7185878,4.0337352 -2.2072895,0.01601326 8.7185884,-4.0017078 c -1.7454984,2.3720609 -1.7354408,5.6174519 -6e-7,8.035443 z"
         transform="matrix(-1.1,0,0,-1.1,-1.1,0)"
         inkscape:connector-curvature="0" />
    </marker>
    <marker
       inkscape:stockid="Arrow2Lend"
       orient="auto"
       refY="0"
       refX="0"
       id="marker20512-3-3"
       style="overflow:visible"
       inkscape:isstock="true">
      <path
         id="path20514-1-6"
         style="fill:#0705ff;fill-opacity:1;fill-rule:evenodd;stroke:#0705ff;stroke-width:0.625;stroke-linejoin:round;stroke-opacity:1"
         d="M 8.7185878,4.0337352 -2.2072895,0.01601326 8.7185884,-4.0017078 c -1.7454984,2.3720609 -1.7354408,5.6174519 -6e-7,8.035443 z"
         transform="matrix(-1.1,0,0,-1.1,-1.1,0)"
         inkscape:connector-curvature="0" />
    </marker>
    <marker
       inkscape:stockid="Arrow2Lend"
       orient="auto"
       refY="0"
       refX="0"
       id="marker20512-3-4"
       style="overflow:visible"
       inkscape:isstock="true">
      <path
         id="path20514-1-0"
         style="fill:#0705ff;fill-opacity:1;fill-rule:evenodd;stroke:#0705ff;stroke-width:0.625;stroke-linejoin:round;stroke-opacity:1"
         d="M 8.7185878,4.0337352 -2.2072895,0.01601326 8.7185884,-4.0017078 c -1.7454984,2.3720609 -1.7354408,5.6174519 -6e-7,8.035443 z"
         transform="matrix(-1.1,0,0,-1.1,-1.1,0)"
         inkscape:connector-curvature="0" />
    </marker>
  </defs>
  <metadata
     id="metadata3448">
    <rdf:RDF>
      <cc:Work
         rdf:about="">
        <dc:format>image/svg+xml</dc:format>
        <dc:type
           rdf:resource="http://purl.org/dc/dcmitype/StillImage" />
        <dc:title></dc:title>
      </cc:Work>
    </rdf:RDF>
  </metadata>
  <g
     inkscape:label="Layer 1"
     inkscape:groupmode="layer"
     id="layer1"
     transform="translate(-9.7679577,-262.98349)">
    <rect
       style="fill:#ffffff;fill-opacity:1;stroke:#949494;stroke-width:1.25;stroke-miterlimit:4;stroke-dasharray:none;stroke-opacity:1"
       id="rect3451-9-0-9"
       width="50"
       height="50"
       x="36.325611"
       y="281.44778" />
    <rect
       style="fill:#ffffff;fill-opacity:1;stroke:#949494;stroke-width:1.25;stroke-miterlimit:4;stroke-dasharray:none;stroke-opacity:1"
       id="rect3451-3-1-30-9"
       width="50"
       height="50"
       x="86.325592"
       y="281.44778" />
    <rect
       style="fill:#ffffff;fill-opacity:1;stroke:#949494;stroke-width:1.25;stroke-miterlimit:4;stroke-dasharray:none;stroke-opacity:1"
       id="rect3451-6-7-9-0"
       width="50"
       height="50"
       x="136.32561"
       y="281.44778" />
    <rect
       style="fill:#ffffff;fill-opacity:1;stroke:#949494;stroke-width:1.25;stroke-miterlimit:4;stroke-dasharray:none;stroke-opacity:1"
       id="rect3451-3-7-7-2-8"
       width="50"
       height="50"
       x="186.32561"
       y="281.44778" />
    <rect
       style="fill:#ffffff;fill-opacity:1;stroke:#949494;stroke-width:1.25;stroke-miterlimit:4;stroke-dasharray:none;stroke-opacity:1"
       id="rect3451-5-1-5-1"
       width="100"
       height="50"
       x="236.32565"
       y="281.44778" />
    <rect
       style="fill:#ffffff;fill-opacity:1;stroke:#949494;stroke-width:1.26150608;stroke-miterlimit:4;stroke-dasharray:none;stroke-opacity:1"
       id="rect3451-6-5-1-4-3"
       width="99.817307"
       height="50.018829"
       x="336.58157"
       y="281.43839" />
    <rect
       style="fill:#ffffff;fill-opacity:1;stroke:#949494;stroke-width:1.25;stroke-miterlimit:4;stroke-dasharray:none;stroke-opacity:1"
       id="rect3451-36-7-05-1"
       width="50"
       height="50"
       x="436.32556"
       y="281.44778" />
    <rect
       style="fill:#ffffff;fill-opacity:1;stroke:#949494;stroke-width:1.25;stroke-miterlimit:4;stroke-dasharray:none;stroke-opacity:1"
       id="rect3451-3-75-3-9-1"
       width="50"
       height="50"
       x="486.32553"
       y="281.44778" />
    <rect
       style="fill:#ffffff;fill-opacity:1;stroke:#949494;stroke-width:1.25;stroke-miterlimit:4;stroke-dasharray:none;stroke-opacity:1"
       id="rect3451-35-65-4-0"
       width="50"
       height="50"
       x="536.32562"
       y="281.44778" />
    <rect
       style="fill:#ffffff;fill-opacity:1;stroke:#949494;stroke-width:1.25;stroke-miterlimit:4;stroke-dasharray:none;stroke-opacity:1"
       id="rect3451-3-6-6-6-3"
       width="50"
       height="50"
       x="586.3255"
       y="281.44778" />
    <rect
       style="fill:#ffffff;fill-opacity:1;stroke:#949494;stroke-width:1.25;stroke-miterlimit:4;stroke-dasharray:none;stroke-opacity:1"
       id="rect3451-35-7-3-9-4"
       width="50"
       height="50"
       x="636.3255"
       y="281.44778" />
    <rect
       style="fill:#ffffff;fill-opacity:1;stroke:#949494;stroke-width:1.25;stroke-miterlimit:4;stroke-dasharray:none;stroke-opacity:1"
       id="rect3451-3-6-9-9-2-0"
       width="50"
       height="50"
       x="686.3255"
       y="281.44778" />
    <a
       id="a5994-2-9-2-3"
       transform="matrix(-1.4974716,0,0,1.034105,294.69376,222.78589)"
       style="stroke:#8786ed;stroke-opacity:1">
      <path
         id="path5977-6-1-6-4-9"
         style="fill:none;fill-rule:evenodd;stroke:#8786ed;stroke-width:1px;stroke-linecap:butt;stroke-linejoin:miter;stroke-opacity:1"
         d="m 166.38839,99.911551 c 0,0 0.82884,6.683989 -9.1876,6.654109 -11.6481,-0.0348 -6.22387,0.0743 -15.34044,0.0309 -8.94297,-0.0425 -13.61889,0.97483 -16.06023,2.0916 -2.89727,1.32533 -2.92116,2.87969 -2.92116,2.87969 M 79.374584,99.942217 c 0,0 -0.82884,6.683993 9.1876,6.654113 11.648096,-0.0348 6.22387,0.0743 15.340436,0.0309 8.94297,-0.0425 13.61889,0.97483 16.06023,2.0916 2.89727,1.32533 2.92116,2.87969 2.92116,2.87969"
         inkscape:connector-curvature="0" />
    </a>
    <rect
       style="fill:#ffffff;fill-opacity:1;stroke:#949494;stroke-width:1.25;stroke-miterlimit:4;stroke-dasharray:none;stroke-opacity:1"
       id="rect3451-3-7-7-5-77-1"
       width="50"
       height="50"
       x="236.31842"
       y="281.42618" />
    <a
       id="a5994-2-9-9-5-9"
       transform="matrix(-1.4974716,0,0,1.034105,444.71536,222.76789)"
       style="stroke:#8786ed;stroke-opacity:1">
      <path
         id="path5977-6-1-6-7-4-6"
         style="fill:none;fill-rule:evenodd;stroke:#8786ed;stroke-width:1px;stroke-linecap:butt;stroke-linejoin:miter;stroke-opacity:1"
         d="m 166.38839,99.911551 c 0,0 0.82884,6.683989 -9.1876,6.654109 -11.6481,-0.0348 -6.22387,0.0743 -15.34044,0.0309 -8.94297,-0.0425 -13.61889,0.97483 -16.06023,2.0916 -2.89727,1.32533 -2.92116,2.87969 -2.92116,2.87969 M 79.374584,99.942217 c 0,0 -0.82884,6.683993 9.1876,6.654113 11.648096,-0.0348 6.22387,0.0743 15.340436,0.0309 8.94297,-0.0425 13.61889,0.97483 16.06023,2.0916 2.89727,1.32533 2.92116,2.87969 2.92116,2.87969"
         inkscape:connector-curvature="0" />
    </a>
    <a
       id="a5994-2-9-9-1-93-0"
       transform="matrix(-1.4974716,0,0,1.034105,694.64168,222.60084)"
       style="stroke:#8786ed;stroke-opacity:1">
      <path
         id="path5977-6-1-6-7-8-68-5"
         style="fill:none;fill-rule:evenodd;stroke:#8786ed;stroke-width:1px;stroke-linecap:butt;stroke-linejoin:miter;stroke-opacity:1"
         d="m 166.38839,99.911551 c 0,0 0.82884,6.683989 -9.1876,6.654109 -11.6481,-0.0348 -6.22387,0.0743 -15.34044,0.0309 -8.94297,-0.0425 -13.61889,0.97483 -16.06023,2.0916 -2.89727,1.32533 -2.92116,2.87969 -2.92116,2.87969 M 79.374584,99.942217 c 0,0 -0.82884,6.683993 9.1876,6.654113 11.648096,-0.0348 6.22387,0.0743 15.340436,0.0309 8.94297,-0.0425 13.61889,0.97483 16.06023,2.0916 2.89727,1.32533 2.92116,2.87969 2.92116,2.87969"
         inkscape:connector-curvature="0" />
    </a>
    <a
       id="a5994-2-9-9-1-9-0-6"
       transform="matrix(-1.4974716,0,0,1.034105,844.66867,222.78759)"
       style="stroke:#8786ed;stroke-opacity:1">
      <path
         id="path5977-6-1-6-7-8-6-2-6"
         style="fill:none;fill-rule:evenodd;stroke:#8786ed;stroke-width:1px;stroke-linecap:butt;stroke-linejoin:miter;stroke-opacity:1"
         d="m 166.38839,99.911551 c 0,0 0.82884,6.683989 -9.1876,6.654109 -11.6481,-0.0348 -6.22387,0.0743 -15.34044,0.0309 -8.94297,-0.0425 -13.61889,0.97483 -16.06023,2.0916 -2.89727,1.32533 -2.92116,2.87969 -2.92116,2.87969 M 79.374584,99.942217 c 0,0 -0.82884,6.683993 9.1876,6.654113 11.648096,-0.0348 6.22387,0.0743 15.340436,0.0309 8.94297,-0.0425 13.61889,0.97483 16.06023,2.0916 2.89727,1.32533 2.92116,2.87969 2.92116,2.87969"
         inkscape:connector-curvature="0" />
    </a>
    <rect
       style="fill:#ffffff;fill-opacity:1;stroke:#949494;stroke-width:1.25;stroke-miterlimit:4;stroke-dasharray:none;stroke-opacity:1"
       id="rect3451-9-0"
       width="50"
       height="50"
       x="23.82341"
       y="272.47449" />
    <rect
       style="fill:#ffffff;fill-opacity:1;stroke:#949494;stroke-width:1.25;stroke-miterlimit:4;stroke-dasharray:none;stroke-opacity:1"
       id="rect3451-3-1-30"
       width="50"
       height="50"
       x="73.823402"
       y="272.47449" />
    <rect
       style="fill:#ffffff;fill-opacity:1;stroke:#949494;stroke-width:1.25;stroke-miterlimit:4;stroke-dasharray:none;stroke-opacity:1"
       id="rect3451-6-7-9"
       width="50"
       height="50"
       x="123.82342"
       y="272.47449" />
    <rect
       style="fill:#ffffff;fill-opacity:1;stroke:#949494;stroke-width:1.25;stroke-miterlimit:4;stroke-dasharray:none;stroke-opacity:1"
       id="rect3451-3-7-7-2"
       width="50"
       height="50"
       x="173.82343"
       y="272.47449" />
    <rect
       style="fill:#ffffff;fill-opacity:1;stroke:#949494;stroke-width:1.25;stroke-miterlimit:4;stroke-dasharray:none;stroke-opacity:1"
       id="rect3451-5-1-5"
       width="100"
       height="50"
       x="223.82344"
       y="272.47449" />
    <rect
       style="fill:#ffffff;fill-opacity:1;stroke:#949494;stroke-width:1.26150608;stroke-miterlimit:4;stroke-dasharray:none;stroke-opacity:1"
       id="rect3451-6-5-1-4"
       width="99.817307"
       height="50.018829"
       x="324.07938"
       y="272.46509" />
    <rect
       style="fill:#ffffff;fill-opacity:1;stroke:#949494;stroke-width:1.25;stroke-miterlimit:4;stroke-dasharray:none;stroke-opacity:1"
       id="rect3451-36-7-05"
       width="50"
       height="50"
       x="423.82339"
       y="272.47449" />
    <rect
       style="fill:#ffffff;fill-opacity:1;stroke:#949494;stroke-width:1.25;stroke-miterlimit:4;stroke-dasharray:none;stroke-opacity:1"
       id="rect3451-3-75-3-9"
       width="50"
       height="50"
       x="473.82336"
       y="272.47449" />
    <rect
       style="fill:#ffffff;fill-opacity:1;stroke:#949494;stroke-width:1.25;stroke-miterlimit:4;stroke-dasharray:none;stroke-opacity:1"
       id="rect3451-35-65-4"
       width="50"
       height="50"
       x="523.82343"
       y="272.47449" />
    <rect
       style="fill:#ffffff;fill-opacity:1;stroke:#949494;stroke-width:1.25;stroke-miterlimit:4;stroke-dasharray:none;stroke-opacity:1"
       id="rect3451-3-6-6-6"
       width="50"
       height="50"
       x="573.82336"
       y="272.47449" />
    <rect
       style="fill:#ffffff;fill-opacity:1;stroke:#949494;stroke-width:1.25;stroke-miterlimit:4;stroke-dasharray:none;stroke-opacity:1"
       id="rect3451-35-7-3-9"
       width="50"
       height="50"
       x="623.82336"
       y="272.47449" />
    <rect
       style="fill:#ffffff;fill-opacity:1;stroke:#949494;stroke-width:1.25;stroke-miterlimit:4;stroke-dasharray:none;stroke-opacity:1"
       id="rect3451-3-6-9-9-2"
       width="50"
       height="50"
       x="673.82336"
       y="272.47449" />
    <a
       id="a5994-2-9-2"
       transform="matrix(-1.4974716,0,0,1.034105,282.19156,213.81256)"
       style="stroke:#8786ed;stroke-opacity:1">
      <path
         id="path5977-6-1-6-4"
         style="fill:none;fill-rule:evenodd;stroke:#8786ed;stroke-width:1px;stroke-linecap:butt;stroke-linejoin:miter;stroke-opacity:1"
         d="m 166.38839,99.911551 c 0,0 0.82884,6.683989 -9.1876,6.654109 -11.6481,-0.0348 -6.22387,0.0743 -15.34044,0.0309 -8.94297,-0.0425 -13.61889,0.97483 -16.06023,2.0916 -2.89727,1.32533 -2.92116,2.87969 -2.92116,2.87969 M 79.374584,99.942217 c 0,0 -0.82884,6.683993 9.1876,6.654113 11.648096,-0.0348 6.22387,0.0743 15.340436,0.0309 8.94297,-0.0425 13.61889,0.97483 16.06023,2.0916 2.89727,1.32533 2.92116,2.87969 2.92116,2.87969"
         inkscape:connector-curvature="0" />
    </a>
    <rect
       style="fill:#ffffff;fill-opacity:1;stroke:#949494;stroke-width:1.25;stroke-miterlimit:4;stroke-dasharray:none;stroke-opacity:1"
       id="rect3451-3-7-7-5-77"
       width="50"
       height="50"
       x="223.81622"
       y="272.45288" />
    <a
       id="a5994-2-9-9-5"
       transform="matrix(-1.4974716,0,0,1.034105,432.21316,213.79456)"
       style="stroke:#8786ed;stroke-opacity:1">
      <path
         id="path5977-6-1-6-7-4"
         style="fill:none;fill-rule:evenodd;stroke:#8786ed;stroke-width:1px;stroke-linecap:butt;stroke-linejoin:miter;stroke-opacity:1"
         d="m 166.38839,99.911551 c 0,0 0.82884,6.683989 -9.1876,6.654109 -11.6481,-0.0348 -6.22387,0.0743 -15.34044,0.0309 -8.94297,-0.0425 -13.61889,0.97483 -16.06023,2.0916 -2.89727,1.32533 -2.92116,2.87969 -2.92116,2.87969 M 79.374584,99.942217 c 0,0 -0.82884,6.683993 9.1876,6.654113 11.648096,-0.0348 6.22387,0.0743 15.340436,0.0309 8.94297,-0.0425 13.61889,0.97483 16.06023,2.0916 2.89727,1.32533 2.92116,2.87969 2.92116,2.87969"
         inkscape:connector-curvature="0" />
    </a>
    <flowRoot
       xml:space="preserve"
       id="flowRoot19423-1-5-8"
       style="font-style:normal;font-weight:normal;font-size:40px;line-height:125%;font-family:sans-serif;text-align:center;letter-spacing:0px;word-spacing:0px;text-anchor:middle;fill:#000000;fill-opacity:1;stroke:#949494;stroke-width:1px;stroke-linecap:butt;stroke-linejoin:miter;stroke-opacity:1"
       transform="translate(113.48879,233.63449)"><flowRegion
         id="flowRegion19425-2-38-1"><rect
           id="rect19427-9-8-2"
           width="95"
           height="50"
           x="215"
           y="47.362206"
           style="font-size:40px;text-align:center;text-anchor:middle;stroke:#949494;stroke-opacity:1" /></flowRegion><flowPara
         id="flowPara19429-3-3-8"
         style="font-size:30px;stroke:#949494;stroke-opacity:1">...</flowPara></flowRoot>    <a
       id="a5994-2-9-9-1-93"
       transform="matrix(-1.4974716,0,0,1.034105,682.13948,213.62751)"
       style="stroke:#8786ed;stroke-opacity:1">
      <path
         id="path5977-6-1-6-7-8-68"
         style="fill:none;fill-rule:evenodd;stroke:#8786ed;stroke-width:1px;stroke-linecap:butt;stroke-linejoin:miter;stroke-opacity:1"
         d="m 166.38839,99.911551 c 0,0 0.82884,6.683989 -9.1876,6.654109 -11.6481,-0.0348 -6.22387,0.0743 -15.34044,0.0309 -8.94297,-0.0425 -13.61889,0.97483 -16.06023,2.0916 -2.89727,1.32533 -2.92116,2.87969 -2.92116,2.87969 M 79.374584,99.942217 c 0,0 -0.82884,6.683993 9.1876,6.654113 11.648096,-0.0348 6.22387,0.0743 15.340436,0.0309 8.94297,-0.0425 13.61889,0.97483 16.06023,2.0916 2.89727,1.32533 2.92116,2.87969 2.92116,2.87969"
         inkscape:connector-curvature="0" />
    </a>
    <a
       id="a5994-2-9-9-1-9-0"
       transform="matrix(-1.4974716,0,0,1.034105,832.16647,213.81426)"
       style="stroke:#8786ed;stroke-opacity:1">
      <path
         id="path5977-6-1-6-7-8-6-2"
         style="fill:none;fill-rule:evenodd;stroke:#8786ed;stroke-width:1px;stroke-linecap:butt;stroke-linejoin:miter;stroke-opacity:1"
         d="m 166.38839,99.911551 c 0,0 0.82884,6.683989 -9.1876,6.654109 -11.6481,-0.0348 -6.22387,0.0743 -15.34044,0.0309 -8.94297,-0.0425 -13.61889,0.97483 -16.06023,2.0916 -2.89727,1.32533 -2.92116,2.87969 -2.92116,2.87969 M 79.374584,99.942217 c 0,0 -0.82884,6.683993 9.1876,6.654113 11.648096,-0.0348 6.22387,0.0743 15.340436,0.0309 8.94297,-0.0425 13.61889,0.97483 16.06023,2.0916 2.89727,1.32533 2.92116,2.87969 2.92116,2.87969"
         inkscape:connector-curvature="0" />
    </a>
    <flowRoot
       xml:space="preserve"
       id="flowRoot5957"
       style="font-style:normal;font-weight:normal;font-size:5px;line-height:125%;font-family:sans-serif;letter-spacing:0px;word-spacing:0px;fill:none;fill-opacity:1;stroke:#000000;stroke-width:1px;stroke-linecap:butt;stroke-linejoin:miter;stroke-opacity:1"
       transform="matrix(0,1.0840859,-4.1652334,0,662.8173,-13.166345)"><flowRegion
         id="flowRegion5959"
         style="stroke:url(#linearGradient4719)"><rect
           id="rect5961"
           width="30"
           height="49.999992"
           x="100"
           y="112.36221"
           style="fill:none;fill-opacity:1;stroke:#000000;stroke-opacity:1" /></flowRegion><flowPara
         id="flowPara5963"
         style="font-style:normal;font-variant:normal;font-weight:normal;font-stretch:normal;font-size:30px;font-family:'TeX Gyre Heros';-inkscape-font-specification:'TeX Gyre Heros';fill:none;fill-opacity:1;stroke:#000000;stroke-opacity:1" /></flowRoot>    <text
       xml:space="preserve"
       style="font-style:normal;font-weight:normal;font-size:5px;line-height:125%;font-family:sans-serif;letter-spacing:0px;word-spacing:0px;fill:none;fill-opacity:1;stroke:#000000;stroke-width:1px;stroke-linecap:butt;stroke-linejoin:miter;stroke-opacity:1"
       x="150"
       y="137.3622"
       id="text5965"
       sodipodi:linespacing="125%"><tspan
         sodipodi:role="line"
         id="tspan5967"
         x="150"
         y="137.3622"
         style="fill:none;fill-opacity:1;stroke:#000000;stroke-opacity:1" /><tspan
         sodipodi:role="line"
         x="150"
         y="143.6122"
         id="tspan5969"
         style="fill:none;fill-opacity:1;stroke:#000000;stroke-opacity:1" /></text>
    <a
       id="a5994"
       transform="matrix(1.0582271,0,0,1,-3.0633791,-3.3505724)"
       style="fill:none;fill-opacity:1;stroke:#000000;stroke-opacity:1" />
    <flowRoot
       xml:space="preserve"
       id="flowRoot19415"
       style="font-style:normal;font-weight:normal;font-size:40px;line-height:125%;font-family:sans-serif;letter-spacing:0px;word-spacing:0px;fill:none;fill-opacity:1;stroke:#000000;stroke-width:1px;stroke-linecap:butt;stroke-linejoin:miter;stroke-opacity:1"><flowRegion
         id="flowRegion19417"
         style="stroke:url(#linearGradient4755)"><rect
           id="rect19419"
           width="90"
           height="40"
           x="215"
           y="47.362206"
           style="font-size:40px;fill:none;fill-opacity:1;stroke:#000000;stroke-opacity:1" /></flowRegion><flowPara
         id="flowPara19421"
         style="fill:none;fill-opacity:1;stroke:#000000;stroke-opacity:1" /></flowRoot>    <flowRoot
       xml:space="preserve"
       id="flowRoot14746-2"
       style="font-style:normal;font-weight:normal;font-size:5px;line-height:125%;font-family:sans-serif;letter-spacing:0px;word-spacing:0px;fill:#000000;fill-opacity:1;stroke:none;stroke-width:1px;stroke-linecap:butt;stroke-linejoin:miter;stroke-opacity:1"
       transform="translate(-17.123749,44.371964)"><flowRegion
         id="flowRegion14748-2"><rect
           id="rect14750-8"
           width="19.966389"
           height="29.192238"
           x="169.64539"
           y="283.0369" /></flowRegion><flowPara
         id="flowPara14752-9"
         style="font-size:17.5px" /></flowRoot>    <rect
       style="fill:#ffffff;fill-opacity:1;stroke:#000000;stroke-width:1.25;stroke-miterlimit:4;stroke-dasharray:none;stroke-opacity:1"
       id="rect3451-9"
       width="50"
       height="50"
       x="10.795599"
       y="263.6301" />
    <rect
       style="fill:#ffffff;fill-opacity:1;stroke:#000000;stroke-width:1.25;stroke-miterlimit:4;stroke-dasharray:none;stroke-opacity:1"
       id="rect3451-3-1"
       width="50"
       height="50"
       x="60.795601"
       y="263.6301" />
    <rect
       style="fill:#ffffff;fill-opacity:1;stroke:#000000;stroke-width:1.25;stroke-miterlimit:4;stroke-dasharray:none;stroke-opacity:1"
       id="rect3451-6-7"
       width="50"
       height="50"
       x="110.7956"
       y="263.6301" />
    <rect
       style="fill:#ffffff;fill-opacity:1;stroke:#000000;stroke-width:1.25;stroke-miterlimit:4;stroke-dasharray:none;stroke-opacity:1"
       id="rect3451-3-7-7"
       width="50"
       height="50"
       x="160.79559"
       y="263.6301" />
    <rect
       style="fill:#ffffff;fill-opacity:1;stroke:#000000;stroke-width:1.25;stroke-miterlimit:4;stroke-dasharray:none;stroke-opacity:1"
       id="rect3451-5-1"
       width="100"
       height="50"
       x="210.79561"
       y="263.6301" />
    <rect
       style="fill:#ffffff;fill-opacity:1;stroke:#000000;stroke-width:1.26150608;stroke-miterlimit:4;stroke-dasharray:none;stroke-opacity:1"
       id="rect3451-6-5-1"
       width="99.817307"
       height="50.018829"
       x="311.05154"
       y="263.6207" />
    <rect
       style="fill:#ffffff;fill-opacity:1;stroke:#000000;stroke-width:1.25;stroke-miterlimit:4;stroke-dasharray:none;stroke-opacity:1"
       id="rect3451-36-7"
       width="50"
       height="50"
       x="410.79559"
       y="263.6301" />
    <rect
       style="fill:#ffffff;fill-opacity:1;stroke:#000000;stroke-width:1.25;stroke-miterlimit:4;stroke-dasharray:none;stroke-opacity:1"
       id="rect3451-3-75-3"
       width="50"
       height="50"
       x="460.79556"
       y="263.6301" />
    <rect
       style="fill:#ffffff;fill-opacity:1;stroke:#000000;stroke-width:1.25;stroke-miterlimit:4;stroke-dasharray:none;stroke-opacity:1"
       id="rect3451-35-65"
       width="50"
       height="50"
       x="510.79562"
       y="263.6301" />
    <rect
       style="fill:#ffffff;fill-opacity:1;stroke:#000000;stroke-width:1.25;stroke-miterlimit:4;stroke-dasharray:none;stroke-opacity:1"
       id="rect3451-3-6-6"
       width="50"
       height="50"
       x="560.79559"
       y="263.6301" />
    <flowRoot
       xml:space="preserve"
       id="flowRoot4513-2-39"
       style="font-style:normal;font-weight:normal;font-size:5px;line-height:125%;font-family:sans-serif;letter-spacing:0px;word-spacing:0px;fill:#000000;fill-opacity:1;stroke:none;stroke-width:1px;stroke-linecap:butt;stroke-linejoin:miter;stroke-opacity:1"
       transform="translate(405.42572,179.17805)"><flowRegion
         id="flowRegion4515-6-4"><rect
           id="rect4517-1-8"
           width="287.98038"
           height="43.436443"
           x="340"
           y="97.362206" /></flowRegion><flowPara
         id="flowPara4519-8-1"
         style="font-size:15px">multiple</flowPara><flowPara
         style="font-size:15px"
         id="flowPara6193-2">inputs</flowPara><flowPara
         style="font-size:15px"
         id="flowPara4379-9" /></flowRoot>    <rect
       style="fill:#ffffff;fill-opacity:1;stroke:#000000;stroke-width:1.25;stroke-miterlimit:4;stroke-dasharray:none;stroke-opacity:1"
       id="rect3451-35-7-3"
       width="50"
       height="50"
       x="610.79559"
       y="263.6301" />
    <rect
       style="fill:#ffffff;fill-opacity:1;stroke:#000000;stroke-width:1.25;stroke-miterlimit:4;stroke-dasharray:none;stroke-opacity:1"
       id="rect3451-3-6-9-9"
       width="50"
       height="50"
       x="660.79559"
       y="263.6301" />
    <flowRoot
       xml:space="preserve"
       id="flowRoot4513-2-3-0"
       style="font-style:normal;font-weight:normal;font-size:5px;line-height:125%;font-family:sans-serif;letter-spacing:0px;word-spacing:0px;fill:#000000;fill-opacity:1;stroke:none;stroke-width:1px;stroke-linecap:butt;stroke-linejoin:miter;stroke-opacity:1"
       transform="translate(377.16139,312.82338)"><flowRegion
         id="flowRegion4515-6-6-8"><rect
           id="rect4517-1-7-8"
           width="290"
           height="30"
           x="340"
           y="97.362206" /></flowRegion><flowPara
         id="flowPara4519-8-5-5"
         style="font-size:15px">output</flowPara><flowPara
         style="font-size:15px"
         id="flowPara4379-3-0" /></flowRoot>    <a
       id="a5994-2-9"
       transform="matrix(-1.4974716,0,0,1.034105,269.16375,204.96817)"
       style="stroke:#0705ff;stroke-opacity:1">
      <path
         id="path5977-6-1-6"
         style="fill:none;fill-rule:evenodd;stroke:#0705ff;stroke-width:1px;stroke-linecap:butt;stroke-linejoin:miter;stroke-opacity:1"
         d="m 166.38839,99.911551 c 0,0 0.82884,6.683989 -9.1876,6.654109 -11.6481,-0.0348 -6.22387,0.0743 -15.34044,0.0309 -8.94297,-0.0425 -13.61889,0.97483 -16.06023,2.0916 -2.89727,1.32533 -2.92116,2.87969 -2.92116,2.87969 M 79.374584,99.942217 c 0,0 -0.82884,6.683993 9.1876,6.654113 11.648096,-0.0348 6.22387,0.0743 15.340436,0.0309 8.94297,-0.0425 13.61889,0.97483 16.06023,2.0916 2.89727,1.32533 2.92116,2.87969 2.92116,2.87969"
         inkscape:connector-curvature="0" />
    </a>
    <rect
       style="fill:#ffffff;fill-opacity:1;stroke:#000000;stroke-width:1.25;stroke-miterlimit:4;stroke-dasharray:none;stroke-opacity:1"
       id="rect3451-3-7-7-5"
       width="50"
       height="50"
       x="210.78839"
       y="263.60849" />
    <a
       id="a5994-2-9-9"
       transform="matrix(-1.4974716,0,0,1.034105,419.18535,204.95017)"
       style="stroke:#0705ff;stroke-opacity:1">
      <path
         id="path5977-6-1-6-7"
         style="fill:none;fill-rule:evenodd;stroke:#0705ff;stroke-width:1px;stroke-linecap:butt;stroke-linejoin:miter;stroke-opacity:1"
         d="m 166.38839,99.911551 c 0,0 0.82884,6.683989 -9.1876,6.654109 -11.6481,-0.0348 -6.22387,0.0743 -15.34044,0.0309 -8.94297,-0.0425 -13.61889,0.97483 -16.06023,2.0916 -2.89727,1.32533 -2.92116,2.87969 -2.92116,2.87969 M 79.374584,99.942217 c 0,0 -0.82884,6.683993 9.1876,6.654113 11.648096,-0.0348 6.22387,0.0743 15.340436,0.0309 8.94297,-0.0425 13.61889,0.97483 16.06023,2.0916 2.89727,1.32533 2.92116,2.87969 2.92116,2.87969"
         inkscape:connector-curvature="0" />
    </a>
    <flowRoot
       xml:space="preserve"
       id="flowRoot19423-1-5"
       style="font-style:normal;font-weight:normal;font-size:40px;line-height:125%;font-family:sans-serif;text-align:center;letter-spacing:0px;word-spacing:0px;text-anchor:middle;fill:#000000;fill-opacity:1;stroke:none;stroke-width:1px;stroke-linecap:butt;stroke-linejoin:miter;stroke-opacity:1"
       transform="translate(100.46098,224.7901)"><flowRegion
         id="flowRegion19425-2-38"><rect
           id="rect19427-9-8"
           width="95"
           height="50"
           x="215"
           y="47.362206"
           style="font-size:40px;text-align:center;text-anchor:middle" /></flowRegion><flowPara
         id="flowPara19429-3-3"
         style="font-size:30px">...</flowPara></flowRoot>    <a
       id="a5994-2-9-9-1"
       transform="matrix(-1.4974716,0,0,1.034105,669.11167,204.78312)"
       style="stroke:#0705ff;stroke-opacity:1">
      <path
         id="path5977-6-1-6-7-8"
         style="fill:none;fill-rule:evenodd;stroke:#0705ff;stroke-width:1px;stroke-linecap:butt;stroke-linejoin:miter;stroke-opacity:1"
         d="m 166.38839,99.911551 c 0,0 0.82884,6.683989 -9.1876,6.654109 -11.6481,-0.0348 -6.22387,0.0743 -15.34044,0.0309 -8.94297,-0.0425 -13.61889,0.97483 -16.06023,2.0916 -2.89727,1.32533 -2.92116,2.87969 -2.92116,2.87969 M 79.374584,99.942217 c 0,0 -0.82884,6.683993 9.1876,6.654113 11.648096,-0.0348 6.22387,0.0743 15.340436,0.0309 8.94297,-0.0425 13.61889,0.97483 16.06023,2.0916 2.89727,1.32533 2.92116,2.87969 2.92116,2.87969"
         inkscape:connector-curvature="0" />
    </a>
    <a
       id="a5994-2-9-9-1-9"
       transform="matrix(-1.4974716,0,0,1.034105,819.13866,204.96987)"
       style="stroke:#0705ff;stroke-opacity:1">
      <path
         id="path5977-6-1-6-7-8-6"
         style="fill:none;fill-rule:evenodd;stroke:#0705ff;stroke-width:1px;stroke-linecap:butt;stroke-linejoin:miter;stroke-opacity:1"
         d="m 166.38839,99.911551 c 0,0 0.82884,6.683989 -9.1876,6.654109 -11.6481,-0.0348 -6.22387,0.0743 -15.34044,0.0309 -8.94297,-0.0425 -13.61889,0.97483 -16.06023,2.0916 -2.89727,1.32533 -2.92116,2.87969 -2.92116,2.87969 M 79.374584,99.942217 c 0,0 -0.82884,6.683993 9.1876,6.654113 11.648096,-0.0348 6.22387,0.0743 15.340436,0.0309 8.94297,-0.0425 13.61889,0.97483 16.06023,2.0916 2.89727,1.32533 2.92116,2.87969 2.92116,2.87969"
         inkscape:connector-curvature="0" />
    </a>
    <rect
       style="fill:#ffffff;fill-opacity:1;stroke:#000000;stroke-width:1.25;stroke-miterlimit:4;stroke-dasharray:none;stroke-opacity:1"
       id="rect3451-9-4"
       width="50"
       height="50"
       x="10.392958"
       y="397.99512" />
    <rect
       style="fill:#ffffff;fill-opacity:1;stroke:#000000;stroke-width:1.25;stroke-miterlimit:4;stroke-dasharray:none;stroke-opacity:1"
       id="rect3451-3-1-3"
       width="50"
       height="50"
       x="60.39296"
       y="397.99512" />
    <rect
       style="fill:#ffffff;fill-opacity:1;stroke:#000000;stroke-width:1.25;stroke-miterlimit:4;stroke-dasharray:none;stroke-opacity:1"
       id="rect3451-6-7-3"
       width="50"
       height="50"
       x="110.39297"
       y="397.99512" />
    <rect
       style="fill:#ffffff;fill-opacity:1;stroke:#000000;stroke-width:1.25;stroke-miterlimit:4;stroke-dasharray:none;stroke-opacity:1"
       id="rect3451-3-7-7-3"
       width="50"
       height="50"
       x="160.39296"
       y="397.99512" />
    <rect
       style="fill:#ffffff;fill-opacity:1;stroke:#000000;stroke-width:1.25;stroke-miterlimit:4;stroke-dasharray:none;stroke-opacity:1"
       id="rect3451-5-1-8"
       width="100"
       height="50"
       x="210.39297"
       y="397.99512" />
    <rect
       style="fill:#ffffff;fill-opacity:1;stroke:#000000;stroke-width:1.26150608;stroke-miterlimit:4;stroke-dasharray:none;stroke-opacity:1"
       id="rect3451-6-5-1-6"
       width="99.817307"
       height="50.018829"
       x="310.6489"
       y="397.98572" />
    <rect
       style="fill:#ffffff;fill-opacity:1;stroke:#000000;stroke-width:1.25;stroke-miterlimit:4;stroke-dasharray:none;stroke-opacity:1"
       id="rect3451-36-7-0"
       width="50"
       height="50"
       x="410.39294"
       y="397.99512" />
    <rect
       style="fill:#ffffff;fill-opacity:1;stroke:#000000;stroke-width:1.25;stroke-miterlimit:4;stroke-dasharray:none;stroke-opacity:1"
       id="rect3451-3-75-3-4"
       width="50"
       height="50"
       x="460.39291"
       y="397.99512" />
    <rect
       style="fill:#ffffff;fill-opacity:1;stroke:#000000;stroke-width:1.25;stroke-miterlimit:4;stroke-dasharray:none;stroke-opacity:1"
       id="rect3451-35-65-8"
       width="50"
       height="50"
       x="510.39297"
       y="397.99512" />
    <rect
       style="fill:#ffffff;fill-opacity:1;stroke:#000000;stroke-width:1.25;stroke-miterlimit:4;stroke-dasharray:none;stroke-opacity:1"
       id="rect3451-3-6-6-8"
       width="50"
       height="50"
       x="560.39288"
       y="397.99512" />
    <rect
       style="fill:#ffffff;fill-opacity:1;stroke:#000000;stroke-width:1.25;stroke-miterlimit:4;stroke-dasharray:none;stroke-opacity:1"
       id="rect3451-35-7-3-8"
       width="50"
       height="50"
       x="610.39288"
       y="397.99512" />
    <rect
       style="fill:#ffffff;fill-opacity:1;stroke:#000000;stroke-width:1.25;stroke-miterlimit:4;stroke-dasharray:none;stroke-opacity:1"
       id="rect3451-3-6-9-9-9"
       width="50"
       height="50"
       x="660.39294"
       y="397.99512" />
    <rect
       style="fill:#ffffff;fill-opacity:1;stroke:#000000;stroke-width:1.25;stroke-miterlimit:4;stroke-dasharray:none;stroke-opacity:1"
       id="rect3451-3-7-7-5-7"
       width="50"
       height="50"
       x="210.38576"
       y="397.97351" />
    <flowRoot
       xml:space="preserve"
       id="flowRoot19423-1-5-7"
       style="font-style:normal;font-weight:normal;font-size:40px;line-height:125%;font-family:sans-serif;text-align:center;letter-spacing:0px;word-spacing:0px;text-anchor:middle;fill:#000000;fill-opacity:1;stroke:none;stroke-width:1px;stroke-linecap:butt;stroke-linejoin:miter;stroke-opacity:1"
       transform="translate(100.05834,359.15512)"><flowRegion
         id="flowRegion19425-2-38-6"><rect
           id="rect19427-9-8-4"
           width="95"
           height="50"
           x="215"
           y="47.362206"
           style="font-size:40px;text-align:center;text-anchor:middle" /></flowRegion><flowPara
         id="flowPara19429-3-3-3"
         style="font-size:30px">...</flowPara></flowRoot>    <path
       sodipodi:nodetypes="cc"
       inkscape:connector-curvature="0"
       id="path3391-9-7-9-8-0"
       d="m 360.02207,347.49764 0,33.20684"
       style="fill:none;fill-rule:evenodd;stroke:#0705ff;stroke-width:1.176;stroke-linecap:butt;stroke-linejoin:miter;stroke-miterlimit:4;stroke-dasharray:none;stroke-opacity:1;marker-end:url(#marker20512-3-4)" />
  </g>
</svg>
