<?xml version="1.0" encoding="UTF-8" standalone="no"?>
<!-- Created with Inkscape (http://www.inkscape.org/) -->

<svg
   xmlns:ns0="http://www.iki.fi/pav/software/textext/"
   xmlns:dc="http://purl.org/dc/elements/1.1/"
   xmlns:cc="http://creativecommons.org/ns#"
   xmlns:rdf="http://www.w3.org/1999/02/22-rdf-syntax-ns#"
   xmlns:svg="http://www.w3.org/2000/svg"
   xmlns="http://www.w3.org/2000/svg"
   xmlns:sodipodi="http://sodipodi.sourceforge.net/DTD/sodipodi-0.dtd"
   xmlns:inkscape="http://www.inkscape.org/namespaces/inkscape"
   width="172.7908mm"
   height="117.92759mm"
   viewBox="0 0 612.25087 417.85366"
   id="svg3443"
   version="1.1"
   inkscape:version="0.91 r13725"
   sodipodi:docname="prolonation1D_MapPad_bold.svg">
  <sodipodi:namedview
     id="base"
     pagecolor="#ffffff"
     bordercolor="#666666"
     borderopacity="1.0"
     inkscape:pageopacity="0.0"
     inkscape:pageshadow="2"
     inkscape:zoom="1.7320174"
     inkscape:cx="311.6462"
     inkscape:cy="207.7312"
     inkscape:document-units="px"
     inkscape:current-layer="layer1"
     showgrid="true"
     inkscape:snap-grids="true"
     inkscape:snap-page="true"
     inkscape:snap-object-midpoints="true"
     inkscape:window-width="1855"
     inkscape:window-height="1056"
     inkscape:window-x="65"
     inkscape:window-y="24"
     inkscape:window-maximized="1"
     fit-margin-top="0"
     fit-margin-left="0"
     fit-margin-right="0"
     fit-margin-bottom="0">
    <inkscape:grid
       id="grid3453"
       type="xygrid"
       originx="-85.277873"
       originy="-587.77134" />
  </sodipodi:namedview>
  <defs
     id="defs3445">
    <marker
       inkscape:isstock="true"
       style="overflow:visible"
       id="marker18393"
       refX="0"
       refY="0"
       orient="auto"
       inkscape:stockid="Arrow1Mend">
      <path
         transform="matrix(-0.4,0,0,-0.4,-4,0)"
         style="fill:#31bd18;fill-opacity:1;fill-rule:evenodd;stroke:#31bd18;stroke-width:1pt;stroke-opacity:1"
         d="M 0,0 5,-5 -12.5,0 5,5 0,0 Z"
         id="path18395"
         inkscape:connector-curvature="0" />
    </marker>
    <marker
       inkscape:isstock="true"
       style="overflow:visible"
       id="marker18329"
       refX="0"
       refY="0"
       orient="auto"
       inkscape:stockid="Arrow2Lend">
      <path
         transform="matrix(-1.1,0,0,-1.1,-1.1,0)"
         d="M 8.7185878,4.0337352 -2.2072895,0.01601326 8.7185884,-4.0017078 c -1.7454984,2.3720609 -1.7354408,5.6174519 -6e-7,8.035443 z"
         style="fill:#000000;fill-opacity:1;fill-rule:evenodd;stroke:#000000;stroke-width:0.625;stroke-linejoin:round;stroke-opacity:1"
         id="path18331"
         inkscape:connector-curvature="0" />
    </marker>
    <marker
       inkscape:isstock="true"
       style="overflow:visible"
       id="marker4685"
       refX="0"
       refY="0"
       orient="auto"
       inkscape:stockid="Arrow2Lend">
      <path
         transform="matrix(-1.1,0,0,-1.1,-1.1,0)"
         d="M 8.7185878,4.0337352 -2.2072895,0.01601326 8.7185884,-4.0017078 c -1.7454984,2.3720609 -1.7354408,5.6174519 -6e-7,8.035443 z"
         style="fill:#000000;fill-opacity:1;fill-rule:evenodd;stroke:#000000;stroke-width:0.625;stroke-linejoin:round;stroke-opacity:1"
         id="path4687"
         inkscape:connector-curvature="0" />
    </marker>
    <marker
       inkscape:isstock="true"
       style="overflow:visible"
       id="Arrow1Lend"
       refX="0"
       refY="0"
       orient="auto"
       inkscape:stockid="Arrow1Lend">
      <path
         transform="matrix(-0.8,0,0,-0.8,-10,0)"
         style="fill:#000000;fill-opacity:1;fill-rule:evenodd;stroke:#000000;stroke-width:1pt;stroke-opacity:1"
         d="M 0,0 5,-5 -12.5,0 5,5 0,0 Z"
         id="path4200"
         inkscape:connector-curvature="0" />
    </marker>
    <marker
       inkscape:isstock="true"
       style="overflow:visible"
       id="Arrow2Lend"
       refX="0"
       refY="0"
       orient="auto"
       inkscape:stockid="Arrow2Lend">
      <path
         transform="matrix(-1.1,0,0,-1.1,-1.1,0)"
         d="M 8.7185878,4.0337352 -2.2072895,0.01601326 8.7185884,-4.0017078 c -1.7454984,2.3720609 -1.7354408,5.6174519 -6e-7,8.035443 z"
         style="fill:#31bd18;fill-opacity:1;fill-rule:evenodd;stroke:#31bd18;stroke-width:0.625;stroke-linejoin:round;stroke-opacity:1"
         id="path4218"
         inkscape:connector-curvature="0" />
    </marker>
    <marker
       inkscape:isstock="true"
       style="overflow:visible"
       id="Arrow1Lstart"
       refX="0"
       refY="0"
       orient="auto"
       inkscape:stockid="Arrow1Lstart">
      <path
         transform="matrix(0.8,0,0,0.8,10,0)"
         style="fill:#000000;fill-opacity:1;fill-rule:evenodd;stroke:#000000;stroke-width:1pt;stroke-opacity:1"
         d="M 0,0 5,-5 -12.5,0 5,5 0,0 Z"
         id="path4197"
         inkscape:connector-curvature="0" />
    </marker>
    <inkscape:path-effect
       is_visible="true"
       id="path-effect5973"
       effect="spiro" />
    <marker
       inkscape:isstock="true"
       style="overflow:visible"
       id="marker4685-9"
       refX="0"
       refY="0"
       orient="auto"
       inkscape:stockid="Arrow2Lend">
      <path
         transform="matrix(-1.1,0,0,-1.1,-1.1,0)"
         d="M 8.7185878,4.0337352 -2.2072895,0.01601326 8.7185884,-4.0017078 c -1.7454984,2.3720609 -1.7354408,5.6174519 -6e-7,8.035443 z"
         style="fill:#000000;fill-opacity:1;fill-rule:evenodd;stroke:#000000;stroke-width:0.625;stroke-linejoin:round;stroke-opacity:1"
         id="path4687-2"
         inkscape:connector-curvature="0" />
    </marker>
    <marker
       inkscape:isstock="true"
       style="overflow:visible"
       id="Arrow1Mend-2"
       refX="0"
       refY="0"
       orient="auto"
       inkscape:stockid="Arrow1Mend">
      <path
         transform="matrix(-0.4,0,0,-0.4,-4,0)"
         style="fill:#31bd18;fill-opacity:1;fill-rule:evenodd;stroke:#31bd18;stroke-width:1pt;stroke-opacity:1"
         d="M 0,0 5,-5 -12.5,0 5,5 0,0 Z"
         id="path4206-8"
         inkscape:connector-curvature="0" />
    </marker>
    <marker
       inkscape:isstock="true"
       style="overflow:visible"
       id="Arrow1Mend"
       refX="0"
       refY="0"
       orient="auto"
       inkscape:stockid="Arrow1Mend">
      <path
         transform="matrix(-0.4,0,0,-0.4,-4,0)"
         style="fill:#31bd18;fill-opacity:1;fill-rule:evenodd;stroke:#31bd18;stroke-width:1pt;stroke-opacity:1"
         d="M 0,0 5,-5 -12.5,0 5,5 0,0 Z"
         id="path4206"
         inkscape:connector-curvature="0" />
    </marker>
    <marker
       inkscape:isstock="true"
       style="overflow:visible"
       id="Arrow2Lend-2"
       refX="0"
       refY="0"
       orient="auto"
       inkscape:stockid="Arrow2Lend">
      <path
         inkscape:connector-curvature="0"
         transform="matrix(-1.1,0,0,-1.1,-1.1,0)"
         d="M 8.7185878,4.0337352 -2.2072895,0.01601326 8.7185884,-4.0017078 c -1.7454984,2.3720609 -1.7354408,5.6174519 -6e-7,8.035443 z"
         style="fill:#31bd18;fill-opacity:1;fill-rule:evenodd;stroke:#31bd18;stroke-width:0.625;stroke-linejoin:round;stroke-opacity:1"
         id="path4218-8" />
    </marker>
    <marker
       inkscape:isstock="true"
       style="overflow:visible"
       id="Arrow2Lend-8"
       refX="0"
       refY="0"
       orient="auto"
       inkscape:stockid="Arrow2Lend">
      <path
         inkscape:connector-curvature="0"
         transform="matrix(-1.1,0,0,-1.1,-1.1,0)"
         d="M 8.7185878,4.0337352 -2.2072895,0.01601326 8.7185884,-4.0017078 c -1.7454984,2.3720609 -1.7354408,5.6174519 -6e-7,8.035443 z"
         style="fill:#31bd18;fill-opacity:1;fill-rule:evenodd;stroke:#31bd18;stroke-width:0.625;stroke-linejoin:round;stroke-opacity:1"
         id="path4218-4" />
    </marker>
    <marker
       inkscape:isstock="true"
       style="overflow:visible"
       id="Arrow2Lend-8-9"
       refX="0"
       refY="0"
       orient="auto"
       inkscape:stockid="Arrow2Lend">
      <path
         inkscape:connector-curvature="0"
         transform="matrix(-1.1,0,0,-1.1,-1.1,0)"
         d="M 8.7185878,4.0337352 -2.2072895,0.01601326 8.7185884,-4.0017078 c -1.7454984,2.3720609 -1.7354408,5.6174519 -6e-7,8.035443 z"
         style="fill:#31bd18;fill-opacity:1;fill-rule:evenodd;stroke:#31bd18;stroke-width:0.625;stroke-linejoin:round;stroke-opacity:1"
         id="path4218-4-7" />
    </marker>
  </defs>
  <metadata
     id="metadata3448">
    <rdf:RDF>
      <cc:Work
         rdf:about="">
        <dc:format>image/svg+xml</dc:format>
        <dc:type
           rdf:resource="http://purl.org/dc/dcmitype/StillImage" />
        <dc:title></dc:title>
      </cc:Work>
    </rdf:RDF>
  </metadata>
  <g
     id="layer1"
     inkscape:groupmode="layer"
     inkscape:label="Layer 1"
     transform="translate(-85.27787,-46.737206)">
    <rect
       style="opacity:1;fill:#ffffff;fill-opacity:0.98431373;stroke:#ffffff;stroke-width:1.25;stroke-linejoin:miter;stroke-miterlimit:3.99107146;stroke-dasharray:none;stroke-dashoffset:0;stroke-opacity:1"
       id="rect4330-3"
       width="45"
       height="25"
       x="634.81573"
       y="434.59518" />
    <rect
       y="47.362206"
       x="285"
       height="50"
       width="50"
       id="rect3451-5"
       style="fill:none;fill-opacity:0.15094341;stroke:#000000;stroke-width:1.25;stroke-miterlimit:3.99107146;stroke-dasharray:none;stroke-opacity:1" />
    <rect
       y="47.362206"
       x="335"
       height="50"
       width="50"
       id="rect3451-3-3"
       style="fill:none;fill-opacity:0.15094341;stroke:#000000;stroke-width:1.25;stroke-miterlimit:3.99107146;stroke-dasharray:none;stroke-opacity:1" />
    <rect
       y="47.362206"
       x="385"
       height="50"
       width="50"
       id="rect3451-6-5"
       style="fill:none;fill-opacity:0.15094341;stroke:#000000;stroke-width:1.25;stroke-miterlimit:3.99107146;stroke-dasharray:none;stroke-opacity:1" />
    <rect
       y="47.362206"
       x="435"
       height="50"
       width="50"
       id="rect3451-3-7-6"
       style="fill:none;fill-opacity:0.15094341;stroke:#000000;stroke-width:1.25;stroke-miterlimit:3.99107146;stroke-dasharray:none;stroke-opacity:1" />
    <rect
       y="422.59369"
       x="85.90287"
       height="41.37215"
       width="119.63467"
       id="rect3451-7"
       style="fill:none;fill-opacity:0.15094341;stroke:#000000;stroke-width:1.25;stroke-miterlimit:3.99107146;stroke-dasharray:none;stroke-opacity:1" />
    <flowRoot
       transform="matrix(0,1.0840859,-4.1652334,0,662.8173,-13.166345)"
       style="font-style:normal;font-weight:normal;font-size:5px;line-height:125%;font-family:sans-serif;letter-spacing:0px;word-spacing:0px;fill:none;fill-opacity:1;stroke:none;stroke-width:1px;stroke-linecap:butt;stroke-linejoin:miter;stroke-opacity:1"
       id="flowRoot5957"
       xml:space="preserve"><flowRegion
         id="flowRegion5959"><rect
           y="112.36221"
           x="100"
           height="49.999992"
           width="30"
           id="rect5961"
           style="fill:none" /></flowRegion><flowPara
         style="font-style:normal;font-variant:normal;font-weight:normal;font-stretch:normal;font-size:30px;font-family:'TeX Gyre Heros';-inkscape-font-specification:'TeX Gyre Heros';fill:none"
         id="flowPara5963" /></flowRoot>    <text
       sodipodi:linespacing="125%"
       id="text5965"
       y="137.3622"
       x="150"
       style="font-style:normal;font-weight:normal;font-size:5px;line-height:125%;font-family:sans-serif;letter-spacing:0px;word-spacing:0px;fill:none;fill-opacity:1;stroke:none;stroke-width:1px;stroke-linecap:butt;stroke-linejoin:miter;stroke-opacity:1"
       xml:space="preserve"><tspan
         y="137.3622"
         x="150"
         id="tspan5967"
         sodipodi:role="line" /><tspan
         id="tspan5969"
         y="143.6122"
         x="150"
         sodipodi:role="line" /></text>
    <a
       transform="matrix(1.0582271,0,0,1,-3.0633791,-3.3505724)"
       id="a5994"
       style="fill:none" />
    <rect
       y="430.8421"
       x="93.150795"
       height="25.211025"
       width="25.205452"
       id="rect3451-74"
       style="fill:none;fill-opacity:0.15094341;stroke:#919091;stroke-width:1.25;stroke-miterlimit:3.99107146;stroke-dasharray:none;stroke-dashoffset:0;stroke-opacity:1" />
    <rect
       y="430.8421"
       x="118.35625"
       height="25.211025"
       width="25.205452"
       id="rect3451-3-0"
       style="fill:none;fill-opacity:0.15094341;stroke:#000000;stroke-width:1.25;stroke-miterlimit:3.99107146;stroke-dasharray:none;stroke-dashoffset:0;stroke-opacity:1" />
    <rect
       y="430.84213"
       x="148.13124"
       height="25.211025"
       width="25.205452"
       id="rect3451-74-6"
       style="fill:none;fill-opacity:0.15094341;stroke:#919091;stroke-width:1.25;stroke-miterlimit:3.99107146;stroke-dasharray:none;stroke-dashoffset:0;stroke-opacity:1" />
    <rect
       y="430.84213"
       x="173.3367"
       height="25.211025"
       width="25.205452"
       id="rect3451-3-0-2"
       style="fill:none;fill-opacity:0.15094341;stroke:#000000;stroke-width:1.25;stroke-miterlimit:3.99107146;stroke-dasharray:none;stroke-opacity:1" />
    <rect
       y="172.3622"
       x="235"
       height="50"
       width="50"
       id="rect3451-3-7-7"
       style="fill:none;fill-opacity:0.15094341;stroke:#919091;stroke-width:1.25;stroke-miterlimit:3.99107146;stroke-dasharray:none;stroke-dashoffset:0;stroke-opacity:1" />
    <rect
       y="172.3622"
       x="285"
       height="50"
       width="50"
       id="rect3451-5-4"
       style="fill:none;fill-opacity:0.15094341;stroke:#000000;stroke-width:1.25;stroke-miterlimit:3.99107146;stroke-dasharray:none;stroke-dashoffset:0;stroke-opacity:1" />
    <rect
       y="172.3622"
       x="335"
       height="50"
       width="50"
       id="rect3451-3-3-8"
       style="fill:none;fill-opacity:0.15094341;stroke:#000000;stroke-width:1.25;stroke-miterlimit:3.99107146;stroke-dasharray:none;stroke-opacity:1" />
    <rect
       y="172.3622"
       x="385"
       height="50"
       width="50"
       id="rect3451-6-5-5"
       style="fill:none;fill-opacity:0.15094341;stroke:#000000;stroke-width:1.25;stroke-miterlimit:3.99107146;stroke-dasharray:none;stroke-opacity:1" />
    <rect
       y="172.3622"
       x="435"
       height="50"
       width="50"
       id="rect3451-3-7-6-8"
       style="fill:none;fill-opacity:0.15094341;stroke:#000000;stroke-width:1.25;stroke-miterlimit:3.99107146;stroke-dasharray:none;stroke-opacity:1" />
    <rect
       y="172.3622"
       x="485"
       height="50"
       width="50"
       id="rect3451-3-3-2-2"
       style="fill:none;fill-opacity:0.15094341;stroke:#919091;stroke-width:1.25;stroke-miterlimit:3.99107146;stroke-dasharray:none;stroke-dashoffset:0;stroke-opacity:1" />
    <flowRoot
       transform="translate(-208.26071,40.723242)"
       style="font-style:normal;font-weight:normal;font-size:35px;line-height:125%;font-family:sans-serif;letter-spacing:0px;word-spacing:0px;fill:#31bd18;fill-opacity:1;stroke:none;stroke-width:1px;stroke-linecap:butt;stroke-linejoin:miter;stroke-opacity:1"
       id="flowRoot3383-9"
       xml:space="preserve"><flowRegion
         id="flowRegion3385-6"><rect
           style="font-size:35px;fill:#31bd18;fill-opacity:1;stroke:none;stroke-opacity:1"
           y="92.362206"
           x="630"
           height="85"
           width="275"
           id="rect3387-0" /></flowRegion><flowPara
         style="font-size:15px;line-height:125%;fill:#31bd18;fill-opacity:1;stroke:none;stroke-opacity:1"
         id="flowPara3389-7">using Pad(1,1,clamp)</flowPara></flowRoot>    <path
       inkscape:connector-curvature="0"
       id="path3391-0"
       d="m 385.08952,110.21182 0,50.00001"
       style="fill:none;fill-rule:evenodd;stroke:#31bd18;stroke-width:1px;stroke-linecap:butt;stroke-linejoin:miter;stroke-opacity:1;marker-end:url(#Arrow2Lend-2)" />
    <flowRoot
       transform="translate(85.105087,17.366382)"
       style="font-style:normal;font-weight:normal;font-size:5px;line-height:125%;font-family:sans-serif;letter-spacing:0px;word-spacing:0px;fill:#000000;fill-opacity:1;stroke:none;stroke-width:1px;stroke-linecap:butt;stroke-linejoin:miter;stroke-opacity:1"
       id="flowRoot4513-1"
       xml:space="preserve"><flowRegion
         id="flowRegion4515-0"><rect
           y="97.362206"
           x="340"
           height="30"
           width="290"
           id="rect4517-1" /></flowRegion><flowPara
         style="font-size:15px"
         id="flowPara4519-3">boundary handling</flowPara></flowRoot>    <g
       ns0:jacobian_sqrt="12.5"
       ns0:inkscapeversion="0.91"
       ns0:alignment="middle center"
       ns0:scale="10.0"
       ns0:preamble="/home/martin/.config/inkscape/extensions/default_packages.tex"
       ns0:text="\\large \\textcircled{\\small 1}"
       ns0:pdfconverter="pstoedit"
       ns0:texconverter="pdflatex"
       ns0:version="0.7.2"
       word-spacing="normal"
       letter-spacing="normal"
       font-size-adjust="none"
       font-stretch="normal"
       font-weight="normal"
       font-variant="normal"
       font-style="normal"
       stroke-miterlimit="10.433"
       xml:space="preserve"
       transform="matrix(1.9479911,0,0,-1.9479911,108.675,1517.0272)"
       id="g5682"
       style="font-style:normal;font-variant:normal;font-weight:normal;font-stretch:normal;letter-spacing:normal;word-spacing:normal;text-anchor:start;fill:#000000;fill-opacity:1;fill-rule:evenodd;stroke:#000000;stroke-linecap:butt;stroke-linejoin:miter;stroke-miterlimit:10.43299961;stroke-dasharray:none;stroke-dashoffset:0;stroke-opacity:1"><path
         id="path5684"
         d="m 155.11,713.21 0,0.01 0,0.01 0,0.01 0,0.01 0,0.01 0,0.01 0,0.01 0,0.01 0,0 0,0.01 0,0.01 0,0.01 0,0 0,0.01 0,0.01 0,0 -0.01,0.02 0,0.01 0,0.01 0,0.01 -0.01,0.01 0,0 -0.01,0.01 0,0.01 -0.01,0 0,0.01 -0.01,0 -0.01,0.01 -0.01,0 -0.01,0 0,0 -0.01,0.01 -0.01,0 0,0 -0.01,0 0,0 -0.01,0 -0.01,0 0,0 -0.01,0 -0.01,0 -0.01,0 -0.01,0 0,0 -0.01,0 -0.01,0 -0.01,0 -0.01,0 -0.01,0 -0.01,0 c -0.56,-0.57 -1.38,-0.57 -1.66,-0.57 l 0,-0.28 c 0.17,0 0.72,0 1.2,0.24 l 0,-4.64 c 0,-0.33 -0.03,-0.44 -0.86,-0.44 l -0.29,0 0,-0.28 c 0.33,0.03 1.12,0.03 1.49,0.03 0.37,0 1.18,0 1.5,-0.03 l 0,0.28 -0.29,0 c -0.83,0 -0.86,0.11 -0.86,0.44 z"
         inkscape:connector-curvature="0"
         style="fill:#000000;stroke-width:0" /><path
         id="path5686"
         d="m 160,710.11 -0.48,0 c 0,-2.84 -2.19,-5.09 -4.83,-5.09 l 0,0 c -2.68,0 -4.84,2.27 -4.84,5.09 0,2.85 2.18,5.09 4.83,5.09 2.67,0 4.84,-2.27 4.84,-5.09 l 0.48,0 c 0,3.12 -2.42,5.57 -5.31,5.57 -2.93,0 -5.32,-2.47 -5.32,-5.57 0,-3.12 2.41,-5.57 5.31,-5.57 2.92,0 5.32,2.48 5.32,5.57 z"
         inkscape:connector-curvature="0"
         style="fill:#000000;stroke-width:0" /></g>    <flowRoot
       transform="translate(-181.60191,162.03777)"
       style="font-style:normal;font-weight:normal;font-size:35px;line-height:125%;font-family:sans-serif;letter-spacing:0px;word-spacing:0px;fill:#31bd18;fill-opacity:1;stroke:none;stroke-width:1px;stroke-linecap:butt;stroke-linejoin:miter;stroke-opacity:1"
       id="flowRoot3383"
       xml:space="preserve"><flowRegion
         id="flowRegion3385"><rect
           style="font-size:35px;fill:#31bd18;fill-opacity:1;stroke:none;stroke-opacity:1"
           y="92.362206"
           x="630"
           height="85"
           width="275"
           id="rect3387" /></flowRegion><flowPara
         id="flowPara9643"
         style="font-size:15px;line-height:125%;fill:#31bd18;fill-opacity:1;stroke:none;stroke-opacity:1">using Slide(2,1)</flowPara></flowRoot>    <path
       inkscape:connector-curvature="0"
       id="path3391"
       d="m 384.98238,231.52635 0,50.00001"
       style="fill:none;fill-rule:evenodd;stroke:#31bd18;stroke-width:1px;stroke-linecap:butt;stroke-linejoin:miter;stroke-opacity:1;marker-end:url(#Arrow2Lend-8)" />
    <flowRoot
       transform="translate(84.997951,138.68091)"
       style="font-style:normal;font-weight:normal;font-size:5px;line-height:125%;font-family:sans-serif;letter-spacing:0px;word-spacing:0px;fill:#000000;fill-opacity:1;stroke:none;stroke-width:1px;stroke-linecap:butt;stroke-linejoin:miter;stroke-opacity:1"
       id="flowRoot4513"
       xml:space="preserve"><flowRegion
         id="flowRegion4515"><rect
           y="97.362206"
           x="340"
           height="30"
           width="290"
           id="rect4517" /></flowRegion><flowPara
         style="font-size:15px"
         id="flowPara4519">create neighbourhoods</flowPara></flowRoot>    <g
       style="font-style:normal;font-variant:normal;font-weight:normal;font-stretch:normal;letter-spacing:normal;word-spacing:normal;text-anchor:start;fill:#000000;fill-opacity:1;fill-rule:evenodd;stroke:#000000;stroke-linecap:butt;stroke-linejoin:miter;stroke-miterlimit:10.43299961;stroke-dasharray:none;stroke-dashoffset:0;stroke-opacity:1"
       id="g5956"
       transform="matrix(1.8951098,0,0,-1.8951098,116.85494,1600.9565)"
       xml:space="preserve"
       stroke-miterlimit="10.433"
       font-style="normal"
       font-variant="normal"
       font-weight="normal"
       font-stretch="normal"
       font-size-adjust="none"
       letter-spacing="normal"
       word-spacing="normal"
       ns0:version="0.7.2"
       ns0:texconverter="pdflatex"
       ns0:pdfconverter="pstoedit"
       ns0:text="\\large \\textcircled{\\small 2}"
       ns0:preamble="/home/martin/.config/inkscape/extensions/default_packages.tex"
       ns0:scale="10.0"
       ns0:alignment="middle center"
       ns0:inkscapeversion="0.91"
       ns0:jacobian_sqrt="12.5"><path
         style="fill:#000000;stroke-width:0"
         inkscape:connector-curvature="0"
         d="m 156.53,709.07 -0.25,0 c -0.02,-0.12 -0.09,-0.65 -0.21,-0.79 -0.05,-0.08 -0.67,-0.08 -0.85,-0.08 l -1.6,0 0.89,0.84 c 1.47,1.28 2.02,1.75 2.02,2.67 0,1.03 -0.85,1.74 -1.96,1.74 -1.03,0 -1.73,-0.81 -1.73,-1.63 0,-0.45 0.39,-0.49 0.47,-0.49 0.2,0 0.46,0.14 0.46,0.46 0,0.27 -0.18,0.47 -0.46,0.47 -0.05,0 -0.07,0 -0.11,-0.01 0.22,0.64 0.79,0.93 1.27,0.93 0.92,0 1.23,-0.86 1.23,-1.47 0,-0.92 -0.69,-1.66 -1.12,-2.13 l -1.64,-1.78 c -0.1,-0.09 -0.1,-0.11 -0.1,-0.32 l 3.44,0 z"
         id="path5958" /><path
         style="fill:#000000;stroke-width:0"
         inkscape:connector-curvature="0"
         d="m 160,710.11 -0.48,0 c 0,-2.84 -2.19,-5.09 -4.83,-5.09 l 0,0 c -2.68,0 -4.84,2.27 -4.84,5.09 0,2.85 2.18,5.09 4.83,5.09 2.67,0 4.84,-2.27 4.84,-5.09 l 0.48,0 c 0,3.12 -2.42,5.57 -5.31,5.57 -2.93,0 -5.32,-2.47 -5.32,-5.57 0,-3.12 2.41,-5.57 5.31,-5.57 2.92,0 5.32,2.48 5.32,5.57 z"
         id="path5960" /></g>    <rect
       y="292.57333"
       x="135.20786"
       height="49.577789"
       width="99.877792"
       id="rect3451-7-9"
       style="fill:none;fill-opacity:0.15094341;stroke:#000000;stroke-width:1.25;stroke-miterlimit:3.99107146;stroke-dasharray:none;stroke-opacity:1" />
    <rect
       y="302.35565"
       x="154.99026"
       height="30.013126"
       width="30.006491"
       id="rect3451-74-3"
       style="fill:none;fill-opacity:0.15094341;stroke:#919091;stroke-width:1.25;stroke-miterlimit:3.99107146;stroke-dasharray:none;stroke-dashoffset:0;stroke-opacity:1" />
    <rect
       y="302.35565"
       x="184.99675"
       height="30.013126"
       width="30.006491"
       id="rect3451-3-0-24"
       style="fill:none;fill-opacity:0.15094341;stroke:#000000;stroke-width:1.25;stroke-miterlimit:3.99107146;stroke-dasharray:none;stroke-opacity:1" />
    <rect
       y="292.57318"
       x="235.05786"
       height="49.578094"
       width="99.877785"
       id="rect3451-7-6-3"
       style="fill:none;fill-opacity:0.15094341;stroke:#000000;stroke-width:1.25;stroke-miterlimit:3.99107146;stroke-dasharray:none;stroke-opacity:1" />
    <rect
       y="302.35565"
       x="254.99025"
       height="30.013126"
       width="30.006491"
       id="rect3451-74-6-7"
       style="fill:none;fill-opacity:0.15094341;stroke:#000000;stroke-width:1.25;stroke-miterlimit:3.99107146;stroke-dasharray:none;stroke-opacity:1" />
    <rect
       y="302.35565"
       x="284.99677"
       height="30.013126"
       width="30.006491"
       id="rect3451-3-0-2-1"
       style="fill:none;fill-opacity:0.15094341;stroke:#000000;stroke-width:1.25;stroke-miterlimit:3.99107146;stroke-dasharray:none;stroke-opacity:1" />
    <rect
       y="292.57318"
       x="334.86353"
       height="49.578094"
       width="100.07211"
       id="rect3451-7-6-8-2"
       style="fill:none;fill-opacity:0.15094341;stroke:#000000;stroke-width:1.25;stroke-miterlimit:3.99107146;stroke-dasharray:none;stroke-opacity:1" />
    <rect
       y="302.35565"
       x="354.9903"
       height="30.013126"
       width="30.006491"
       id="rect3451-74-6-9-20"
       style="fill:none;fill-opacity:0.15094341;stroke:#000000;stroke-width:1.25;stroke-miterlimit:3.99107146;stroke-dasharray:none;stroke-opacity:1" />
    <rect
       y="302.35565"
       x="384.99677"
       height="30.013126"
       width="30.006491"
       id="rect3451-3-0-2-6-2"
       style="fill:none;fill-opacity:0.15094341;stroke:#000000;stroke-width:1.25;stroke-miterlimit:3.99107146;stroke-dasharray:none;stroke-opacity:1" />
    <rect
       y="292.57333"
       x="434.94647"
       height="49.577789"
       width="99.877792"
       id="rect3451-7-0-1"
       style="fill:none;fill-opacity:0.15094341;stroke:#000000;stroke-width:1.25;stroke-miterlimit:3.99107146;stroke-dasharray:none;stroke-opacity:1" />
    <rect
       y="302.35565"
       x="454.72882"
       height="30.013126"
       width="30.006491"
       id="rect3451-74-1-7"
       style="fill:none;fill-opacity:0.15094341;stroke:#000000;stroke-width:1.25;stroke-miterlimit:3.99107146;stroke-dasharray:none;stroke-opacity:1" />
    <rect
       y="302.35565"
       x="484.73535"
       height="30.013126"
       width="30.006491"
       id="rect3451-3-0-3-5"
       style="fill:none;fill-opacity:0.15094341;stroke:#000000;stroke-width:1.25;stroke-miterlimit:3.99107146;stroke-dasharray:none;stroke-opacity:1" />
    <rect
       y="292.57321"
       x="534.79645"
       height="49.578094"
       width="99.877785"
       id="rect3451-7-6-7-1"
       style="fill:none;fill-opacity:0.15094341;stroke:#000000;stroke-width:1.25;stroke-miterlimit:3.99107146;stroke-dasharray:none;stroke-opacity:1" />
    <rect
       y="302.35565"
       x="554.72882"
       height="30.013126"
       width="30.006491"
       id="rect3451-74-6-6-7"
       style="fill:none;fill-opacity:0.15094341;stroke:#000000;stroke-width:1.25;stroke-miterlimit:3.99107146;stroke-dasharray:none;stroke-opacity:1" />
    <rect
       y="302.35565"
       x="584.73535"
       height="30.013126"
       width="30.006491"
       id="rect3451-3-0-2-4-4"
       style="fill:none;fill-opacity:0.15094341;stroke:#919091;stroke-width:1.25;stroke-miterlimit:3.99107146;stroke-dasharray:none;stroke-dashoffset:0;stroke-opacity:1" />
    <flowRoot
       transform="translate(-206.36039,288.17607)"
       style="font-style:normal;font-weight:normal;font-size:35px;line-height:125%;font-family:sans-serif;letter-spacing:0px;word-spacing:0px;fill:#31bd18;fill-opacity:1;stroke:none;stroke-width:1px;stroke-linecap:butt;stroke-linejoin:miter;stroke-opacity:1"
       id="flowRoot3383-5"
       xml:space="preserve"><flowRegion
         id="flowRegion3385-64"><rect
           style="font-size:35px;fill:#31bd18;fill-opacity:1;stroke:none;stroke-opacity:1"
           y="92.362206"
           x="630"
           height="86.823944"
           width="276.36038"
           id="rect3387-6" /></flowRegion><flowPara
         id="flowPara9643-3"
         style="font-size:15px;line-height:125%;fill:#31bd18;fill-opacity:1;stroke:none;stroke-opacity:1">using Map(Pad(1,0,clamp)) o Split(1)</flowPara></flowRoot>    <path
       inkscape:connector-curvature="0"
       id="path3391-7"
       d="m 384.98238,358.66837 0,50.00001"
       style="fill:none;fill-rule:evenodd;stroke:#31bd18;stroke-width:1px;stroke-linecap:butt;stroke-linejoin:miter;stroke-opacity:1;marker-end:url(#Arrow2Lend-8-9)" />
    <flowRoot
       transform="translate(84.997951,265.82293)"
       style="font-style:normal;font-weight:normal;font-size:5px;line-height:125%;font-family:sans-serif;letter-spacing:0px;word-spacing:0px;fill:#000000;fill-opacity:1;stroke:none;stroke-width:1px;stroke-linecap:butt;stroke-linejoin:miter;stroke-opacity:1"
       id="flowRoot4513-9"
       xml:space="preserve"><flowRegion
         id="flowRegion4515-7"><rect
           y="97.362206"
           x="340"
           height="30"
           width="290"
           id="rect4517-4" /></flowRegion><flowPara
         style="font-size:15px"
         id="flowPara4519-9">duplicate neighbourhoods</flowPara></flowRoot>    <rect
       y="427.12064"
       x="90.2798"
       height="33.343872"
       width="110.88294"
       id="rect3451-7-3"
       style="fill:none;fill-opacity:0.15094341;stroke:#000000;stroke-width:1.25000453;stroke-miterlimit:3.99107146;stroke-dasharray:none;stroke-opacity:1"
       transform="matrix(0.99999282,-0.00379035,0,1,0,0)" />
    <g
       ns0:jacobian_sqrt="12.5"
       ns0:inkscapeversion="0.91"
       ns0:alignment="middle center"
       ns0:scale="10.0"
       ns0:preamble="/home/martin/.config/inkscape/extensions/default_packages.tex"
       ns0:text="\\Large \\textcircled{\\large  3}"
       ns0:pdfconverter="pstoedit"
       ns0:texconverter="pdflatex"
       ns0:version="0.7.2"
       word-spacing="normal"
       letter-spacing="normal"
       font-size-adjust="none"
       font-stretch="normal"
       font-weight="normal"
       font-variant="normal"
       font-style="normal"
       stroke-miterlimit="10.433"
       xml:space="preserve"
       transform="matrix(1.5196077,0,0,-1.5196077,173.11595,1463.4263)"
       id="g4767"
       style="font-style:normal;font-variant:normal;font-weight:normal;font-stretch:normal;letter-spacing:normal;word-spacing:normal;text-anchor:start;fill:#000000;fill-opacity:1;fill-rule:evenodd;stroke:#000000;stroke-linecap:butt;stroke-linejoin:miter;stroke-miterlimit:10.43299961;stroke-dasharray:none;stroke-dashoffset:0;stroke-opacity:1"><path
         id="path4769"
         d="m 155.16,711.85 -0.01,0 -0.01,0 -0.01,0 0,0 -0.01,0 -0.01,0 -0.01,-0.01 -0.01,0 -0.01,0 -0.02,0 -0.01,0 -0.01,0 -0.01,0 -0.02,0 -0.01,-0.01 -0.01,0 -0.01,0 0,0 -0.01,-0.01 -0.01,0 -0.01,0 0,-0.01 -0.01,0 0,-0.01 -0.01,0 0,-0.01 -0.01,0 0,-0.01 0,0 0,-0.01 -0.01,-0.01 0,-0.01 0,0 0,-0.01 0,-0.01 0,-0.01 c 0,-0.12 0.06,-0.12 0.28,-0.12 l 0.55,0 c 1.01,0 1.47,-0.84 1.47,-1.99 0,-1.56 -0.82,-1.98 -1.4,-1.98 -0.58,0 -1.56,0.27 -1.9,1.06 0.38,-0.06 0.73,0.16 0.73,0.59 0,0.35 -0.26,0.58 -0.59,0.58 -0.29,0 -0.6,-0.16 -0.6,-0.62 0,-1.06 1.07,-1.93 2.39,-1.93 1.43,0 2.48,1.08 2.48,2.29 0,1.1 -0.89,1.96 -2.03,2.17 1.04,0.3 1.71,1.17 1.71,2.1 0,0.94 -0.99,1.64 -2.14,1.64 -1.2,0 -2.09,-0.73 -2.09,-1.6 0,-0.48 0.38,-0.58 0.55,-0.58 0.26,0 0.54,0.18 0.54,0.54 0,0.38 -0.28,0.55 -0.55,0.55 -0.07,0 -0.09,0 -0.13,-0.01 0.46,0.81 1.58,0.81 1.64,0.81 0.39,0 1.17,-0.18 1.17,-1.35 0,-0.23 -0.03,-0.9 -0.38,-1.41 -0.36,-0.53 -0.77,-0.56 -1.09,-0.57 z"
         inkscape:connector-curvature="0"
         style="fill:#000000;stroke-width:0" /><path
         id="path4771"
         d="m 162.25,710.71 -0.57,0 c 0,-3.42 -2.63,-6.11 -5.8,-6.11 l 0,0 c -3.21,0 -5.81,2.72 -5.81,6.11 0,3.41 2.63,6.11 5.8,6.11 3.21,0 5.81,-2.73 5.81,-6.11 l 0.57,0 c 0,3.74 -2.9,6.68 -6.37,6.68 -3.51,0 -6.38,-2.97 -6.38,-6.68 0,-3.74 2.9,-6.69 6.37,-6.69 3.51,0 6.38,2.97 6.38,6.69 z"
         inkscape:connector-curvature="0"
         style="fill:#000000;stroke-width:0" /></g>    <rect
       y="422.59372"
       x="205.5703"
       height="41.37215"
       width="119.63467"
       id="rect3451-7-36"
       style="fill:none;fill-opacity:0.15094341;stroke:#000000;stroke-width:1.25;stroke-miterlimit:3.99107146;stroke-dasharray:none;stroke-opacity:1" />
    <rect
       y="430.84213"
       x="212.81824"
       height="25.211025"
       width="25.205452"
       id="rect3451-74-7"
       style="fill:none;fill-opacity:0.15094341;stroke:#000000;stroke-width:1.25;stroke-miterlimit:3.99107146;stroke-dasharray:none;stroke-dashoffset:0;stroke-opacity:1" />
    <rect
       y="430.84213"
       x="238.02365"
       height="25.211025"
       width="25.205452"
       id="rect3451-3-0-5"
       style="fill:none;fill-opacity:0.15094341;stroke:#000000;stroke-width:1.25;stroke-miterlimit:3.99107146;stroke-dasharray:none;stroke-dashoffset:0;stroke-opacity:1" />
    <rect
       y="430.84219"
       x="267.79865"
       height="25.211025"
       width="25.205452"
       id="rect3451-74-6-3"
       style="fill:none;fill-opacity:0.15094341;stroke:#000000;stroke-width:1.25;stroke-miterlimit:3.99107146;stroke-dasharray:none;stroke-dashoffset:0;stroke-opacity:1" />
    <rect
       y="430.84219"
       x="293.00409"
       height="25.211025"
       width="25.205452"
       id="rect3451-3-0-2-5"
       style="fill:none;fill-opacity:0.15094341;stroke:#000000;stroke-width:1.25;stroke-miterlimit:3.99107146;stroke-dasharray:none;stroke-opacity:1" />
    <rect
       y="427.57422"
       x="209.94807"
       height="33.343872"
       width="110.88294"
       id="rect3451-7-3-6"
       style="fill:none;fill-opacity:0.15094341;stroke:#000000;stroke-width:1.25000453;stroke-miterlimit:3.99107146;stroke-dasharray:none;stroke-opacity:1"
       transform="matrix(0.99999282,-0.00379035,0,1,0,0)" />
    <rect
       y="422.58365"
       x="325.22281"
       height="41.37215"
       width="119.63467"
       id="rect3451-7-36-9"
       style="fill:none;fill-opacity:0.15094341;stroke:#000000;stroke-width:1.25;stroke-miterlimit:3.99107146;stroke-dasharray:none;stroke-opacity:1" />
    <rect
       y="430.83206"
       x="332.47073"
       height="25.211025"
       width="25.205452"
       id="rect3451-74-7-3"
       style="fill:none;fill-opacity:0.15094341;stroke:#000000;stroke-width:1.25;stroke-miterlimit:3.99107146;stroke-dasharray:none;stroke-dashoffset:0;stroke-opacity:1" />
    <rect
       y="430.83206"
       x="357.67615"
       height="25.211025"
       width="25.205452"
       id="rect3451-3-0-5-6"
       style="fill:none;fill-opacity:0.15094341;stroke:#000000;stroke-width:1.25;stroke-miterlimit:3.99107146;stroke-dasharray:none;stroke-dashoffset:0;stroke-opacity:1" />
    <rect
       y="430.83212"
       x="387.45114"
       height="25.211025"
       width="25.205452"
       id="rect3451-74-6-3-0"
       style="fill:none;fill-opacity:0.15094341;stroke:#000000;stroke-width:1.25;stroke-miterlimit:3.99107146;stroke-dasharray:none;stroke-dashoffset:0;stroke-opacity:1" />
    <rect
       y="430.83212"
       x="412.65656"
       height="25.211025"
       width="25.205452"
       id="rect3451-3-0-2-5-6"
       style="fill:none;fill-opacity:0.15094341;stroke:#000000;stroke-width:1.25;stroke-miterlimit:3.99107146;stroke-dasharray:none;stroke-opacity:1" />
    <rect
       y="428.01767"
       x="329.60147"
       height="33.343872"
       width="110.88294"
       id="rect3451-7-3-6-2"
       style="fill:none;fill-opacity:0.15094341;stroke:#000000;stroke-width:1.25000453;stroke-miterlimit:3.99107146;stroke-dasharray:none;stroke-opacity:1"
       transform="matrix(0.99999282,-0.00379035,0,1,0,0)" />
    <rect
       y="422.5751"
       x="444.84802"
       height="41.37215"
       width="119.63467"
       id="rect3451-7-36-6"
       style="fill:none;fill-opacity:0.15094341;stroke:#000000;stroke-width:1.25;stroke-miterlimit:3.99107146;stroke-dasharray:none;stroke-opacity:1" />
    <rect
       y="430.82355"
       x="452.09595"
       height="25.211025"
       width="25.205452"
       id="rect3451-74-7-1"
       style="fill:none;fill-opacity:0.15094341;stroke:#000000;stroke-width:1.25;stroke-miterlimit:3.99107146;stroke-dasharray:none;stroke-dashoffset:0;stroke-opacity:1" />
    <rect
       y="430.82355"
       x="477.30139"
       height="25.211025"
       width="25.205452"
       id="rect3451-3-0-5-8"
       style="fill:none;fill-opacity:0.15094341;stroke:#000000;stroke-width:1.25;stroke-miterlimit:3.99107146;stroke-dasharray:none;stroke-dashoffset:0;stroke-opacity:1" />
    <rect
       y="430.82358"
       x="507.07639"
       height="25.211025"
       width="25.205452"
       id="rect3451-74-6-3-7"
       style="fill:none;fill-opacity:0.15094341;stroke:#000000;stroke-width:1.25;stroke-miterlimit:3.99107146;stroke-dasharray:none;stroke-dashoffset:0;stroke-opacity:1" />
    <rect
       y="430.82358"
       x="532.28186"
       height="25.211025"
       width="25.205452"
       id="rect3451-3-0-2-5-9"
       style="fill:none;fill-opacity:0.15094341;stroke:#000000;stroke-width:1.25;stroke-miterlimit:3.99107146;stroke-dasharray:none;stroke-opacity:1" />
    <rect
       y="428.46255"
       x="449.22757"
       height="33.343872"
       width="110.88294"
       id="rect3451-7-3-6-20"
       style="fill:none;fill-opacity:0.15094341;stroke:#000000;stroke-width:1.25000453;stroke-miterlimit:3.99107146;stroke-dasharray:none;stroke-opacity:1"
       transform="matrix(0.99999282,-0.00379035,0,1,0,0)" />
    <rect
       y="422.56503"
       x="564.50055"
       height="41.37215"
       width="119.63467"
       id="rect3451-7-36-9-2"
       style="fill:none;fill-opacity:0.15094341;stroke:#000000;stroke-width:1.25;stroke-miterlimit:3.99107146;stroke-dasharray:none;stroke-opacity:1" />
    <rect
       y="430.81348"
       x="571.74854"
       height="25.211025"
       width="25.205452"
       id="rect3451-74-7-3-3"
       style="fill:none;fill-opacity:0.15094341;stroke:#000000;stroke-width:1.25;stroke-miterlimit:3.99107146;stroke-dasharray:none;stroke-dashoffset:0;stroke-opacity:1" />
    <rect
       y="430.81348"
       x="596.95392"
       height="25.211025"
       width="25.205452"
       id="rect3451-3-0-5-6-7"
       style="fill:none;fill-opacity:0.15094341;stroke:#919091;stroke-width:1.25;stroke-miterlimit:3.99107146;stroke-dasharray:none;stroke-dashoffset:0;stroke-opacity:1" />
    <rect
       y="430.81351"
       x="626.72894"
       height="25.211025"
       width="25.205452"
       id="rect3451-74-6-3-0-5"
       style="fill:none;fill-opacity:0.15094341;stroke:#000000;stroke-width:1.25;stroke-miterlimit:3.99107146;stroke-dasharray:none;stroke-dashoffset:0;stroke-opacity:1" />
    <rect
       y="430.81351"
       x="651.93433"
       height="25.211025"
       width="25.205452"
       id="rect3451-3-0-2-5-6-9"
       style="fill:none;fill-opacity:0.15094341;stroke:#919091;stroke-width:1.25;stroke-miterlimit:3.99107146;stroke-dasharray:none;stroke-dashoffset:0;stroke-opacity:1" />
    <rect
       y="428.90598"
       x="568.88098"
       height="33.343872"
       width="110.88294"
       id="rect3451-7-3-6-2-2"
       style="fill:none;fill-opacity:0.15094341;stroke:#000000;stroke-width:1.25000453;stroke-miterlimit:3.99107146;stroke-dasharray:none;stroke-opacity:1"
       transform="matrix(0.99999282,-0.00379035,0,1,0,0)" />
    <rect
       style="opacity:1;fill:#ffffff;fill-opacity:0.98431373;stroke:#ffffff;stroke-width:10;stroke-linejoin:miter;stroke-miterlimit:4;stroke-dasharray:none;stroke-dashoffset:0;stroke-opacity:1"
       id="rect4330"
       width="45"
       height="25"
       x="90.428688"
       y="51.821503" />
    <flowRoot
       transform="translate(152.21048,-36.268191)"
       style="font-style:normal;font-weight:normal;font-size:5px;line-height:125%;font-family:sans-serif;letter-spacing:0px;word-spacing:0px;fill:#000000;fill-opacity:1;stroke:none;stroke-width:1px;stroke-linecap:butt;stroke-linejoin:miter;stroke-opacity:1"
       id="flowRoot4513-1-3"
       xml:space="preserve"><flowRegion
         id="flowRegion4515-0-6"><rect
           y="97.362206"
           x="340"
           height="30"
           width="290"
           id="rect4517-1-7" /></flowRegion><flowPara
         style="font-size:15px"
         id="flowPara4519-3-5">input</flowPara></flowRoot>  </g>
</svg>
