<?xml version="1.0" encoding="UTF-8" standalone="no"?>
<!-- Created with Inkscape (http://www.inkscape.org/) -->

<svg
   xmlns:ns0="http://www.iki.fi/pav/software/textext/"
   xmlns:dc="http://purl.org/dc/elements/1.1/"
   xmlns:cc="http://creativecommons.org/ns#"
   xmlns:rdf="http://www.w3.org/1999/02/22-rdf-syntax-ns#"
   xmlns:svg="http://www.w3.org/2000/svg"
   xmlns="http://www.w3.org/2000/svg"
   xmlns:xlink="http://www.w3.org/1999/xlink"
   xmlns:sodipodi="http://sodipodi.sourceforge.net/DTD/sodipodi-0.dtd"
   xmlns:inkscape="http://www.inkscape.org/namespaces/inkscape"
   width="213.71654mm"
   height="103.335mm"
   viewBox="0 0 757.26332 366.14764"
   id="svg3443"
   version="1.1"
   inkscape:version="0.91 r13725"
   sodipodi:docname="restriction1D_lift_scheme_smaller.svg">
  <sodipodi:namedview
     id="base"
     pagecolor="#ffffff"
     bordercolor="#666666"
     borderopacity="1.0"
     inkscape:pageopacity="0.0"
     inkscape:pageshadow="2"
     inkscape:zoom="1.3469393"
     inkscape:cx="318.00233"
     inkscape:cy="115.57145"
     inkscape:document-units="px"
     inkscape:current-layer="layer1"
     showgrid="true"
     inkscape:snap-grids="true"
     inkscape:snap-page="true"
     inkscape:snap-object-midpoints="false"
     inkscape:window-width="1855"
     inkscape:window-height="1056"
     inkscape:window-x="65"
     inkscape:window-y="24"
     inkscape:window-maximized="1"
     showguides="false"
     fit-margin-top="0"
     fit-margin-left="0"
     fit-margin-right="0"
     fit-margin-bottom="0">
    <inkscape:grid
       type="xygrid"
       id="grid3453"
       originx="-9.2970716"
       originy="-644.93116" />
  </sodipodi:namedview>
  <defs
     id="defs3445">
    <linearGradient
       inkscape:collect="always"
       id="linearGradient4607">
      <stop
         style="stop-color:#000000;stop-opacity:1;"
         offset="0"
         id="stop4609" />
      <stop
         style="stop-color:#000000;stop-opacity:0;"
         offset="1"
         id="stop4611" />
    </linearGradient>
    <marker
       inkscape:stockid="Arrow1Mend"
       orient="auto"
       refY="0"
       refX="0"
       id="marker18393"
       style="overflow:visible"
       inkscape:isstock="true">
      <path
         id="path18395"
         d="M 0,0 5,-5 -12.5,0 5,5 0,0 Z"
         style="fill:#31bd18;fill-opacity:1;fill-rule:evenodd;stroke:#31bd18;stroke-width:1pt;stroke-opacity:1"
         transform="matrix(-0.4,0,0,-0.4,-4,0)"
         inkscape:connector-curvature="0" />
    </marker>
    <marker
       inkscape:stockid="Arrow2Lend"
       orient="auto"
       refY="0"
       refX="0"
       id="marker18329"
       style="overflow:visible"
       inkscape:isstock="true">
      <path
         id="path18331"
         style="fill:#000000;fill-opacity:1;fill-rule:evenodd;stroke:#000000;stroke-width:0.625;stroke-linejoin:round;stroke-opacity:1"
         d="M 8.7185878,4.0337352 -2.2072895,0.01601326 8.7185884,-4.0017078 c -1.7454984,2.3720609 -1.7354408,5.6174519 -6e-7,8.035443 z"
         transform="matrix(-1.1,0,0,-1.1,-1.1,0)"
         inkscape:connector-curvature="0" />
    </marker>
    <marker
       inkscape:stockid="Arrow2Lend"
       orient="auto"
       refY="0"
       refX="0"
       id="marker4685"
       style="overflow:visible"
       inkscape:isstock="true">
      <path
         id="path4687"
         style="fill:#000000;fill-opacity:1;fill-rule:evenodd;stroke:#000000;stroke-width:0.625;stroke-linejoin:round;stroke-opacity:1"
         d="M 8.7185878,4.0337352 -2.2072895,0.01601326 8.7185884,-4.0017078 c -1.7454984,2.3720609 -1.7354408,5.6174519 -6e-7,8.035443 z"
         transform="matrix(-1.1,0,0,-1.1,-1.1,0)"
         inkscape:connector-curvature="0" />
    </marker>
    <marker
       inkscape:stockid="Arrow1Lend"
       orient="auto"
       refY="0"
       refX="0"
       id="Arrow1Lend"
       style="overflow:visible"
       inkscape:isstock="true">
      <path
         id="path4200"
         d="M 0,0 5,-5 -12.5,0 5,5 0,0 Z"
         style="fill:#000000;fill-opacity:1;fill-rule:evenodd;stroke:#000000;stroke-width:1pt;stroke-opacity:1"
         transform="matrix(-0.8,0,0,-0.8,-10,0)"
         inkscape:connector-curvature="0" />
    </marker>
    <marker
       inkscape:stockid="Arrow2Lend"
       orient="auto"
       refY="0"
       refX="0"
       id="Arrow2Lend"
       style="overflow:visible"
       inkscape:isstock="true">
      <path
         id="path4218"
         style="fill:#31bd18;fill-opacity:1;fill-rule:evenodd;stroke:#31bd18;stroke-width:0.625;stroke-linejoin:round;stroke-opacity:1"
         d="M 8.7185878,4.0337352 -2.2072895,0.01601326 8.7185884,-4.0017078 c -1.7454984,2.3720609 -1.7354408,5.6174519 -6e-7,8.035443 z"
         transform="matrix(-1.1,0,0,-1.1,-1.1,0)"
         inkscape:connector-curvature="0" />
    </marker>
    <marker
       inkscape:stockid="Arrow1Lstart"
       orient="auto"
       refY="0"
       refX="0"
       id="Arrow1Lstart"
       style="overflow:visible"
       inkscape:isstock="true">
      <path
         id="path4197"
         d="M 0,0 5,-5 -12.5,0 5,5 0,0 Z"
         style="fill:#000000;fill-opacity:1;fill-rule:evenodd;stroke:#000000;stroke-width:1pt;stroke-opacity:1"
         transform="matrix(0.8,0,0,0.8,10,0)"
         inkscape:connector-curvature="0" />
    </marker>
    <inkscape:path-effect
       effect="spiro"
       id="path-effect5973"
       is_visible="true" />
    <marker
       inkscape:stockid="Arrow2Lend"
       orient="auto"
       refY="0"
       refX="0"
       id="marker4685-9"
       style="overflow:visible"
       inkscape:isstock="true">
      <path
         inkscape:connector-curvature="0"
         id="path4687-2"
         style="fill:#000000;fill-opacity:1;fill-rule:evenodd;stroke:#000000;stroke-width:0.625;stroke-linejoin:round;stroke-opacity:1"
         d="M 8.7185878,4.0337352 -2.2072895,0.01601326 8.7185884,-4.0017078 c -1.7454984,2.3720609 -1.7354408,5.6174519 -6e-7,8.035443 z"
         transform="matrix(-1.1,0,0,-1.1,-1.1,0)" />
    </marker>
    <marker
       inkscape:stockid="Arrow1Mend"
       orient="auto"
       refY="0"
       refX="0"
       id="Arrow1Mend-2"
       style="overflow:visible"
       inkscape:isstock="true">
      <path
         inkscape:connector-curvature="0"
         id="path4206-8"
         d="M 0,0 5,-5 -12.5,0 5,5 0,0 Z"
         style="fill:#31bd18;fill-opacity:1;fill-rule:evenodd;stroke:#31bd18;stroke-width:1pt;stroke-opacity:1"
         transform="matrix(-0.4,0,0,-0.4,-4,0)" />
    </marker>
    <marker
       inkscape:stockid="Arrow1Mend"
       orient="auto"
       refY="0"
       refX="0"
       id="Arrow1Mend"
       style="overflow:visible"
       inkscape:isstock="true">
      <path
         inkscape:connector-curvature="0"
         id="path4206"
         d="M 0,0 5,-5 -12.5,0 5,5 0,0 Z"
         style="fill:#31bd18;fill-opacity:1;fill-rule:evenodd;stroke:#31bd18;stroke-width:1pt;stroke-opacity:1"
         transform="matrix(-0.4,0,0,-0.4,-4,0)" />
    </marker>
    <linearGradient
       inkscape:collect="always"
       xlink:href="#linearGradient4607"
       id="linearGradient4719"
       gradientUnits="userSpaceOnUse" />
    <linearGradient
       inkscape:collect="always"
       xlink:href="#linearGradient4607"
       id="linearGradient4755"
       gradientUnits="userSpaceOnUse" />
    <marker
       inkscape:stockid="Arrow1Mend"
       orient="auto"
       refY="0"
       refX="0"
       id="marker18393-7"
       style="overflow:visible"
       inkscape:isstock="true">
      <path
         id="path18395-5"
         d="M 0,0 5,-5 -12.5,0 5,5 0,0 Z"
         style="fill:#31bd18;fill-opacity:1;fill-rule:evenodd;stroke:#31bd18;stroke-width:1pt;stroke-opacity:1"
         transform="matrix(-0.4,0,0,-0.4,-4,0)"
         inkscape:connector-curvature="0" />
    </marker>
    <marker
       inkscape:stockid="Arrow1Mend"
       orient="auto"
       refY="0"
       refX="0"
       id="marker18393-73"
       style="overflow:visible"
       inkscape:isstock="true">
      <path
         id="path18395-6"
         d="M 0,0 5,-5 -12.5,0 5,5 0,0 Z"
         style="fill:#31bd18;fill-opacity:1;fill-rule:evenodd;stroke:#31bd18;stroke-width:1pt;stroke-opacity:1"
         transform="matrix(-0.4,0,0,-0.4,-4,0)"
         inkscape:connector-curvature="0" />
    </marker>
  </defs>
  <metadata
     id="metadata3448">
    <rdf:RDF>
      <cc:Work
         rdf:about="">
        <dc:format>image/svg+xml</dc:format>
        <dc:type
           rdf:resource="http://purl.org/dc/dcmitype/StillImage" />
        <dc:title />
      </cc:Work>
    </rdf:RDF>
  </metadata>
  <g
     inkscape:label="Layer 1"
     inkscape:groupmode="layer"
     id="layer1"
     transform="translate(-9.2970715,-41.283405)">
    <rect
       style="opacity:1;fill:#ffffff;fill-opacity:0.98431373;stroke:#ffffff;stroke-width:10;stroke-linejoin:miter;stroke-miterlimit:4;stroke-dasharray:none;stroke-dashoffset:0;stroke-opacity:1"
       id="rect4344-3"
       width="100"
       height="50"
       x="662.16901"
       y="353.03824" />
    <rect
       style="opacity:1;fill:#ffffff;fill-opacity:0.98431373;stroke:#ffffff;stroke-width:10;stroke-linejoin:miter;stroke-miterlimit:4;stroke-dasharray:none;stroke-dashoffset:0;stroke-opacity:1"
       id="rect4344"
       width="100"
       height="50"
       x="14.297071"
       y="46.283405" />
    <rect
       style="fill:none;fill-opacity:1;stroke:#000000;stroke-width:0.30000001;stroke-miterlimit:4;stroke-dasharray:none;stroke-opacity:1"
       id="rect3451"
       width="50"
       height="50"
       x="10"
       y="42.362206" />
    <rect
       style="fill:none;fill-opacity:1;stroke:#000000;stroke-width:0.30000001;stroke-miterlimit:4;stroke-dasharray:none;stroke-opacity:1"
       id="rect3451-3"
       width="50"
       height="50"
       x="60"
       y="42.362206" />
    <rect
       style="fill:none;fill-opacity:1;stroke:#000000;stroke-width:0.30000001;stroke-miterlimit:4;stroke-dasharray:none;stroke-opacity:1"
       id="rect3451-6"
       width="50"
       height="50"
       x="110"
       y="42.362206" />
    <rect
       style="fill:none;fill-opacity:1;stroke:#000000;stroke-width:0.30000001;stroke-miterlimit:4;stroke-dasharray:none;stroke-opacity:1"
       id="rect3451-3-7"
       width="50"
       height="50"
       x="160"
       y="42.362206" />
    <rect
       style="fill:none;fill-opacity:1;stroke:#000000;stroke-width:0.42426407;stroke-miterlimit:4;stroke-dasharray:none;stroke-opacity:1"
       id="rect3451-5"
       width="100"
       height="50"
       x="210"
       y="42.362206" />
    <rect
       style="fill:none;fill-opacity:1;stroke:#000000;stroke-width:0.30000001;stroke-miterlimit:4;stroke-dasharray:none;stroke-opacity:1"
       id="rect3451-6-5"
       width="50"
       height="50"
       x="310"
       y="42.362206" />
    <rect
       style="fill:none;fill-opacity:1;stroke:#000000;stroke-width:0.30000001;stroke-miterlimit:4;stroke-dasharray:none;stroke-opacity:1"
       id="rect3451-3-7-6"
       width="50"
       height="50"
       x="360"
       y="42.362206" />
    <rect
       style="fill:none;fill-opacity:1;stroke:#000000;stroke-width:0.42221081;stroke-miterlimit:4;stroke-dasharray:none;stroke-opacity:1"
       id="rect3451-7"
       width="99.877792"
       height="49.577789"
       x="10.207855"
       y="162.57332" />
    <flowRoot
       xml:space="preserve"
       id="flowRoot5957"
       style="font-style:normal;font-weight:normal;font-size:5px;line-height:125%;font-family:sans-serif;letter-spacing:0px;word-spacing:0px;fill:none;fill-opacity:1;stroke:#000000;stroke-width:1px;stroke-linecap:butt;stroke-linejoin:miter;stroke-opacity:1"
       transform="matrix(0,1.0840859,-4.1652334,0,662.8173,-13.166345)"><flowRegion
         id="flowRegion5959"
         style="stroke:url(#linearGradient4719)"><rect
           id="rect5961"
           width="30"
           height="49.999992"
           x="100"
           y="112.36221"
           style="fill:none;fill-opacity:1;stroke:#000000;stroke-opacity:1" /></flowRegion><flowPara
         id="flowPara5963"
         style="font-style:normal;font-variant:normal;font-weight:normal;font-stretch:normal;font-size:30px;font-family:'TeX Gyre Heros';-inkscape-font-specification:'TeX Gyre Heros';fill:none;fill-opacity:1;stroke:#000000;stroke-opacity:1" /></flowRoot>    <text
       xml:space="preserve"
       style="font-style:normal;font-weight:normal;font-size:5px;line-height:125%;font-family:sans-serif;letter-spacing:0px;word-spacing:0px;fill:none;fill-opacity:1;stroke:#000000;stroke-width:1px;stroke-linecap:butt;stroke-linejoin:miter;stroke-opacity:1"
       x="150"
       y="137.3622"
       id="text5965"
       sodipodi:linespacing="125%"><tspan
         sodipodi:role="line"
         id="tspan5967"
         x="150"
         y="137.3622"
         style="fill:none;fill-opacity:1;stroke:#000000;stroke-opacity:1" /><tspan
         sodipodi:role="line"
         x="150"
         y="143.6122"
         id="tspan5969"
         style="fill:none;fill-opacity:1;stroke:#000000;stroke-opacity:1" /></text>
    <a
       id="a5994"
       transform="matrix(1.0582271,0,0,1,-3.0633791,-3.3505724)"
       style="fill:none;fill-opacity:1;stroke:#000000;stroke-opacity:1" />
    <rect
       style="fill:none;fill-opacity:1;stroke:#000000;stroke-width:0.18005885;stroke-miterlimit:4;stroke-dasharray:none;stroke-opacity:1"
       id="rect3451-74"
       width="30.006491"
       height="30.013126"
       x="29.990265"
       y="172.35565" />
    <rect
       style="fill:none;fill-opacity:1;stroke:#000000;stroke-width:0.18005885;stroke-miterlimit:4;stroke-dasharray:none;stroke-opacity:1"
       id="rect3451-3-0"
       width="30.006491"
       height="30.013126"
       x="59.996758"
       y="172.35565" />
    <rect
       style="fill:none;fill-opacity:1;stroke:#000000;stroke-width:0.42221209;stroke-miterlimit:4;stroke-dasharray:none;stroke-opacity:1"
       id="rect3451-7-6"
       width="99.877785"
       height="49.578094"
       x="110.05786"
       y="162.57318" />
    <rect
       style="fill:none;fill-opacity:1;stroke:#000000;stroke-width:0.18005885;stroke-miterlimit:4;stroke-dasharray:none;stroke-opacity:1"
       id="rect3451-74-6"
       width="30.006491"
       height="30.013126"
       x="129.99025"
       y="172.35565" />
    <rect
       style="fill:none;fill-opacity:1;stroke:#000000;stroke-width:0.18005885;stroke-miterlimit:4;stroke-dasharray:none;stroke-opacity:1"
       id="rect3451-3-0-2"
       width="30.006491"
       height="30.013126"
       x="159.99675"
       y="172.35565" />
    <rect
       style="fill:none;fill-opacity:1;stroke:#000000;stroke-width:0.42262262;stroke-miterlimit:4;stroke-dasharray:none;stroke-opacity:1"
       id="rect3451-7-6-8"
       width="100.07211"
       height="49.578094"
       x="209.86351"
       y="162.57317" />
    <rect
       style="fill:none;fill-opacity:1;stroke:#000000;stroke-width:0.42221081;stroke-miterlimit:4;stroke-dasharray:none;stroke-opacity:1"
       id="rect3451-7-0"
       width="99.877792"
       height="49.577789"
       x="309.94644"
       y="162.57333" />
    <rect
       style="fill:none;fill-opacity:1;stroke:#000000;stroke-width:0.18005885;stroke-miterlimit:4;stroke-dasharray:none;stroke-opacity:1"
       id="rect3451-74-1"
       width="30.006491"
       height="30.013126"
       x="329.72879"
       y="172.35565" />
    <rect
       style="fill:none;fill-opacity:1;stroke:#000000;stroke-width:0.18005885;stroke-miterlimit:4;stroke-dasharray:none;stroke-opacity:1"
       id="rect3451-3-0-3"
       width="30.006491"
       height="30.013126"
       x="359.73532"
       y="172.35565" />
    <flowRoot
       xml:space="preserve"
       id="flowRoot3383"
       style="font-style:normal;font-weight:normal;font-size:35px;line-height:125%;font-family:sans-serif;letter-spacing:0px;word-spacing:0px;fill:#31bd18;fill-opacity:1;stroke:none;stroke-width:1px;stroke-linecap:butt;stroke-linejoin:miter;stroke-opacity:1"
       transform="translate(-206.60191,32.03777)"><flowRegion
         id="flowRegion3385"><rect
           id="rect3387"
           width="275"
           height="85"
           x="630"
           y="92.362206"
           style="font-size:35px;fill:#31bd18;fill-opacity:1;stroke:none;stroke-opacity:1" /></flowRegion><flowPara
         id="flowPara3389"
         style="font-size:15px;line-height:125%;fill:#31bd18;fill-opacity:1;stroke:none;stroke-opacity:1">using Slide(2,2)</flowPara></flowRoot>    <path
       style="fill:none;fill-rule:evenodd;stroke:#31bd18;stroke-width:1px;stroke-linecap:butt;stroke-linejoin:miter;stroke-opacity:1;marker-end:url(#Arrow2Lend)"
       d="m 359.98238,101.52635 0,50.00001"
       id="path3391"
       inkscape:connector-curvature="0" />
    <flowRoot
       xml:space="preserve"
       id="flowRoot4513"
       style="font-style:normal;font-weight:normal;font-size:5px;line-height:125%;font-family:sans-serif;letter-spacing:0px;word-spacing:0px;fill:#000000;fill-opacity:1;stroke:none;stroke-width:1px;stroke-linecap:butt;stroke-linejoin:miter;stroke-opacity:1"
       transform="translate(59.99795,8.680909)"><flowRegion
         id="flowRegion4515"><rect
           id="rect4517"
           width="290"
           height="30"
           x="340"
           y="97.362206" /></flowRegion><flowPara
         id="flowPara4519"
         style="font-size:15px">create neighbourhoods</flowPara></flowRoot>    <rect
       style="fill:none;fill-opacity:1;stroke:#000000;stroke-width:0.24005884;stroke-miterlimit:4;stroke-dasharray:none;stroke-opacity:1"
       id="rect3451-3-0-6"
       width="40.006481"
       height="40.013119"
       x="159.99675"
       y="232.35564" />
    <rect
       style="fill:none;fill-opacity:1;stroke:#000000;stroke-width:0.24005884;stroke-miterlimit:4;stroke-dasharray:none;stroke-opacity:1"
       id="rect3451-3-0-6-7"
       width="40.006481"
       height="40.013119"
       x="119.99676"
       y="232.35565" />
    <path
       style="fill:none;fill-rule:evenodd;stroke:#31bd18;stroke-width:1px;stroke-linecap:butt;stroke-linejoin:miter;stroke-opacity:1"
       d="m 114.99999,232.36218 10,-30"
       id="path4558"
       inkscape:connector-curvature="0" />
    <path
       style="fill:none;fill-rule:evenodd;stroke:#31bd18;stroke-width:1px;stroke-linecap:butt;stroke-linejoin:miter;stroke-opacity:1"
       d="m 204.99999,232.36218 -10,-30"
       id="path4558-5"
       inkscape:connector-curvature="0" />
    <rect
       style="fill:none;fill-opacity:1;stroke:#000000;stroke-width:0.42221081;stroke-miterlimit:4;stroke-dasharray:none;stroke-opacity:1"
       id="rect3451-7-3"
       width="99.877792"
       height="49.577789"
       x="10.016356"
       y="357.64178" />
    <rect
       style="fill:none;fill-opacity:1;stroke:#000000;stroke-width:0.42221209;stroke-miterlimit:4;stroke-dasharray:none;stroke-opacity:1"
       id="rect3451-7-6-9"
       width="99.877785"
       height="49.578094"
       x="109.86636"
       y="357.64163" />
    <rect
       style="fill:none;fill-opacity:1;stroke:#000000;stroke-width:0.42262262;stroke-miterlimit:4;stroke-dasharray:none;stroke-opacity:1"
       id="rect3451-7-6-8-7"
       width="100.07211"
       height="49.578094"
       x="209.67201"
       y="357.64163" />
    <rect
       style="fill:none;fill-opacity:1;stroke:#000000;stroke-width:0.42221081;stroke-miterlimit:4;stroke-dasharray:none;stroke-opacity:1"
       id="rect3451-7-0-3"
       width="99.877792"
       height="49.577789"
       x="309.75497"
       y="357.64178" />
    <path
       style="fill:none;fill-rule:evenodd;stroke:#31bd18;stroke-width:1px;stroke-linecap:butt;stroke-linejoin:miter;stroke-opacity:1;marker-end:url(#Arrow1Mend)"
       d="m 139.81324,252.60319 c -1.182,23.84289 -1.52731,26.03641 11.056,34.94339"
       id="path10763"
       inkscape:connector-curvature="0"
       sodipodi:nodetypes="cc" />
    <flowRoot
       xml:space="preserve"
       id="flowRoot14746"
       style="font-style:normal;font-weight:normal;font-size:5px;line-height:125%;font-family:sans-serif;letter-spacing:0px;word-spacing:0px;fill:#000000;fill-opacity:1;stroke:none;stroke-width:1px;stroke-linecap:butt;stroke-linejoin:miter;stroke-opacity:1"
       transform="translate(-17.123752,-2.2375961)"><flowRegion
         id="flowRegion14748"><rect
           id="rect14750"
           width="19.966389"
           height="29.192238"
           x="169.64539"
           y="283.0369" /></flowRegion><flowPara
         id="flowPara14752"
         style="font-size:17.5px">+</flowPara></flowRoot>    <path
       style="fill:none;fill-rule:evenodd;stroke:#31bd18;stroke-width:1px;stroke-linecap:butt;stroke-linejoin:miter;stroke-opacity:1;marker-end:url(#Arrow1Mend-2)"
       d="m 180.20021,252.59851 c 1.182,23.84289 1.52731,26.03641 -11.056,34.94339"
       id="path10763-9"
       inkscape:connector-curvature="0"
       sodipodi:nodetypes="cc" />
    <path
       style="fill:none;fill-rule:evenodd;stroke:#31bd18;stroke-width:0.5856176px;stroke-linecap:butt;stroke-linejoin:miter;stroke-opacity:1;marker-end:url(#marker18393)"
       d="m 160,304.79155 0,17.1474"
       id="path18327"
       inkscape:connector-curvature="0" />
    <flowRoot
       xml:space="preserve"
       id="flowRoot19415"
       style="font-style:normal;font-weight:normal;font-size:40px;line-height:125%;font-family:sans-serif;letter-spacing:0px;word-spacing:0px;fill:none;fill-opacity:1;stroke:#000000;stroke-width:1px;stroke-linecap:butt;stroke-linejoin:miter;stroke-opacity:1"><flowRegion
         id="flowRegion19417"
         style="stroke:url(#linearGradient4755)"><rect
           id="rect19419"
           width="90"
           height="40"
           x="215"
           y="47.362206"
           style="font-size:40px;fill:none;fill-opacity:1;stroke:#000000;stroke-opacity:1" /></flowRegion><flowPara
         id="flowPara19421"
         style="fill:none;fill-opacity:1;stroke:#000000;stroke-opacity:1" /></flowRoot>    <flowRoot
       xml:space="preserve"
       id="flowRoot19423"
       style="font-style:normal;font-weight:normal;font-size:40px;line-height:125%;font-family:sans-serif;text-align:center;letter-spacing:0px;word-spacing:0px;text-anchor:middle;fill:#000000;fill-opacity:1;stroke:none;stroke-width:1px;stroke-linecap:butt;stroke-linejoin:miter;stroke-opacity:1"
       transform="translate(-2.4785852,3.8785069)"><flowRegion
         id="flowRegion19425"><rect
           id="rect19427"
           width="95"
           height="50"
           x="215"
           y="47.362206"
           style="font-size:40px;text-align:center;text-anchor:middle" /></flowRegion><flowPara
         id="flowPara19429"
         style="font-size:30px">...</flowPara></flowRoot>    <flowRoot
       xml:space="preserve"
       id="flowRoot19423-2"
       style="font-style:normal;font-weight:normal;font-size:40px;line-height:125%;font-family:sans-serif;text-align:center;letter-spacing:0px;word-spacing:0px;text-anchor:middle;fill:#000000;fill-opacity:1;stroke:none;stroke-width:1px;stroke-linecap:butt;stroke-linejoin:miter;stroke-opacity:1"
       transform="translate(-2.4785838,123.8785)"><flowRegion
         id="flowRegion19425-9"><rect
           id="rect19427-3"
           width="95"
           height="50"
           x="215"
           y="47.362206"
           style="font-size:40px;text-align:center;text-anchor:middle" /></flowRegion><flowPara
         id="flowPara19429-1"
         style="font-size:30px">...</flowPara></flowRoot>    <flowRoot
       xml:space="preserve"
       id="flowRoot19423-9"
       style="font-style:normal;font-weight:normal;font-size:40px;line-height:125%;font-family:sans-serif;text-align:center;letter-spacing:0px;word-spacing:0px;text-anchor:middle;fill:#000000;fill-opacity:1;stroke:none;stroke-width:1px;stroke-linecap:butt;stroke-linejoin:miter;stroke-opacity:1"
       transform="translate(-2.7180559,319.08908)"><flowRegion
         id="flowRegion19425-4"><rect
           id="rect19427-7"
           width="95"
           height="50"
           x="215"
           y="47.362206"
           style="font-size:40px;text-align:center;text-anchor:middle" /></flowRegion><flowPara
         id="flowPara19429-8"
         style="font-size:30px">...</flowPara></flowRoot>    <rect
       style="fill:none;fill-opacity:1;stroke:#000000;stroke-width:0.30000001;stroke-miterlimit:4;stroke-dasharray:none;stroke-opacity:1"
       id="rect3451-36"
       width="50"
       height="50"
       x="410"
       y="42.362206" />
    <rect
       style="fill:none;fill-opacity:1;stroke:#000000;stroke-width:0.30000001;stroke-miterlimit:4;stroke-dasharray:none;stroke-opacity:1"
       id="rect3451-3-75"
       width="50"
       height="50"
       x="460"
       y="42.362206" />
    <rect
       style="fill:none;fill-opacity:1;stroke:#000000;stroke-width:0.30000001;stroke-miterlimit:4;stroke-dasharray:none;stroke-opacity:1"
       id="rect3451-35"
       width="50"
       height="50"
       x="510"
       y="42.362206" />
    <rect
       style="fill:none;fill-opacity:1;stroke:#000000;stroke-width:0.30000001;stroke-miterlimit:4;stroke-dasharray:none;stroke-opacity:1"
       id="rect3451-3-6"
       width="50"
       height="50"
       x="560"
       y="42.362206" />
    <rect
       style="fill:none;fill-opacity:1;stroke:#000000;stroke-width:0.42221081;stroke-miterlimit:4;stroke-dasharray:none;stroke-opacity:1"
       id="rect3451-7-0-2"
       width="99.877792"
       height="49.577789"
       x="409.72104"
       y="162.57332" />
    <rect
       style="fill:none;fill-opacity:1;stroke:#000000;stroke-width:0.18005885;stroke-miterlimit:4;stroke-dasharray:none;stroke-opacity:1"
       id="rect3451-74-1-7"
       width="30.006491"
       height="30.013126"
       x="429.50339"
       y="172.35564" />
    <rect
       style="fill:none;fill-opacity:1;stroke:#000000;stroke-width:0.18005885;stroke-miterlimit:4;stroke-dasharray:none;stroke-opacity:1"
       id="rect3451-3-0-3-0"
       width="30.006491"
       height="30.013126"
       x="459.50992"
       y="172.35564" />
    <rect
       style="fill:none;fill-opacity:1;stroke:#000000;stroke-width:0.42221081;stroke-miterlimit:4;stroke-dasharray:none;stroke-opacity:1"
       id="rect3451-7-0-2-9"
       width="99.877792"
       height="49.577789"
       x="509.71573"
       y="162.63646" />
    <rect
       style="fill:none;fill-opacity:1;stroke:#000000;stroke-width:0.18005885;stroke-miterlimit:4;stroke-dasharray:none;stroke-opacity:1"
       id="rect3451-74-1-7-3"
       width="30.006491"
       height="30.013126"
       x="529.49805"
       y="172.41878" />
    <rect
       style="fill:none;fill-opacity:1;stroke:#000000;stroke-width:0.18005885;stroke-miterlimit:4;stroke-dasharray:none;stroke-opacity:1"
       id="rect3451-3-0-3-0-6"
       width="30.006491"
       height="30.013126"
       x="559.50458"
       y="172.41878" />
    <rect
       style="fill:none;fill-opacity:1;stroke:#000000;stroke-width:0.42221081;stroke-miterlimit:4;stroke-dasharray:none;stroke-opacity:1"
       id="rect3451-7-0-3-0"
       width="99.877792"
       height="49.577789"
       x="409.86636"
       y="357.64178" />
    <rect
       style="fill:none;fill-opacity:1;stroke:#000000;stroke-width:0.42221081;stroke-miterlimit:4;stroke-dasharray:none;stroke-opacity:1"
       id="rect3451-7-0-3-6"
       width="99.877792"
       height="49.577789"
       x="509.86636"
       y="357.64178" />
    <flowRoot
       xml:space="preserve"
       id="flowRoot4513-2"
       style="font-style:normal;font-weight:normal;font-size:5px;line-height:125%;font-family:sans-serif;letter-spacing:0px;word-spacing:0px;fill:#000000;fill-opacity:1;stroke:none;stroke-width:1px;stroke-linecap:butt;stroke-linejoin:miter;stroke-opacity:1"
       transform="translate(379.34975,-41.888717)"><flowRegion
         id="flowRegion4515-6"><rect
           id="rect4517-1"
           width="290"
           height="30"
           x="340"
           y="97.362206" /></flowRegion><flowPara
         id="flowPara4519-8"
         style="font-size:15px">input</flowPara><flowPara
         style="font-size:15px"
         id="flowPara4379" /></flowRoot>    <rect
       style="fill:none;fill-opacity:1;stroke:#000000;stroke-width:0.30000001;stroke-miterlimit:4;stroke-dasharray:none;stroke-opacity:1"
       id="rect3451-35-7"
       width="50"
       height="50"
       x="610"
       y="42.362206" />
    <rect
       style="fill:none;fill-opacity:1;stroke:#000000;stroke-width:0.30000001;stroke-miterlimit:4;stroke-dasharray:none;stroke-opacity:1"
       id="rect3451-3-6-9"
       width="50"
       height="50"
       x="660"
       y="42.362206" />
    <rect
       style="fill:none;fill-opacity:1;stroke:#000000;stroke-width:0.42221081;stroke-miterlimit:4;stroke-dasharray:none;stroke-opacity:1"
       id="rect3451-7-0-2-9-2"
       width="99.877792"
       height="49.577789"
       x="609.6571"
       y="162.71101" />
    <rect
       style="fill:none;fill-opacity:1;stroke:#000000;stroke-width:0.18005885;stroke-miterlimit:4;stroke-dasharray:none;stroke-opacity:1"
       id="rect3451-74-1-7-3-0"
       width="30.006491"
       height="30.013126"
       x="629.43945"
       y="172.49333" />
    <rect
       style="fill:none;fill-opacity:1;stroke:#000000;stroke-width:0.18005885;stroke-miterlimit:4;stroke-dasharray:none;stroke-opacity:1"
       id="rect3451-3-0-3-0-6-2"
       width="30.006491"
       height="30.013126"
       x="659.44598"
       y="172.49333" />
    <rect
       style="fill:none;fill-opacity:1;stroke:#000000;stroke-width:0.42221081;stroke-miterlimit:4;stroke-dasharray:none;stroke-opacity:1"
       id="rect3451-7-0-3-6-3"
       width="99.877792"
       height="49.577789"
       x="609.86633"
       y="357.64178" />
    <flowRoot
       xml:space="preserve"
       id="flowRoot14746-2"
       style="font-style:normal;font-weight:normal;font-size:5px;line-height:125%;font-family:sans-serif;letter-spacing:0px;word-spacing:0px;fill:#000000;fill-opacity:1;stroke:none;stroke-width:1px;stroke-linecap:butt;stroke-linejoin:miter;stroke-opacity:1"
       transform="translate(-17.123749,44.371964)"><flowRegion
         id="flowRegion14748-2"><rect
           id="rect14750-8"
           width="19.966389"
           height="29.192238"
           x="169.64539"
           y="283.0369" /></flowRegion><flowPara
         id="flowPara14752-9"
         style="font-size:17.5px" /></flowRoot>    <g
       id="content"
       transform="matrix(1.6837133,0,0,-1.9005819,-100.03475,1686.5085)"
       xml:space="preserve"
       stroke-miterlimit="10.433"
       font-style="normal"
       font-variant="normal"
       font-weight="normal"
       font-stretch="normal"
       font-size-adjust="none"
       letter-spacing="normal"
       word-spacing="normal"
       ns0:version="0.7.2"
       ns0:texconverter="pdflatex"
       ns0:pdfconverter="pstoedit"
       ns0:text="$*\\frac{1}{2}$"
       ns0:preamble="/home/martin/.config/inkscape/extensions/default_packages.tex"
       ns0:scale="1.0"
       ns0:alignment="middle center"
       ns0:inkscapeversion="0.91"
       ns0:jacobian_sqrt="1.25"
       style="font-style:normal;font-variant:normal;font-weight:normal;font-stretch:normal;letter-spacing:normal;word-spacing:normal;text-anchor:start;fill:#000000;fill-opacity:1;fill-rule:evenodd;stroke:#000000;stroke-linecap:butt;stroke-linejoin:miter;stroke-miterlimit:10.43299961;stroke-dasharray:none;stroke-dashoffset:0;stroke-opacity:1"><path
         d="m 151.45,711.38 0,0.01 0,0.01 0,0.02 0,0.01 0,0.02 0,0.01 0,0.02 0,0.01 0,0.02 0,0.02 0,0.01 -0.01,0.02 0,0.01 0,0.02 -0.01,0.01 0,0.02 -0.01,0.01 -0.01,0.02 0,0.01 -0.01,0.01 -0.01,0.01 -0.01,0.02 -0.01,0 -0.01,0.01 0,0 -0.01,0.01 -0.01,0 0,0 -0.01,0.01 -0.01,0 -0.01,0.01 -0.01,0 0,0 -0.01,0 -0.01,0.01 -0.01,0 -0.01,0 -0.01,0 -0.01,0 -0.02,0 -0.01,0 -0.01,0.01 c -0.16,0 -0.29,-0.13 -0.26,-0.26 l 0,-0.13 0.14,-1.55 -1.27,0.93 c -0.09,0.05 -0.11,0.07 -0.18,0.07 -0.14,0 -0.27,-0.14 -0.27,-0.28 0,-0.16 0.1,-0.2 0.2,-0.25 l 1.41,-0.68 -1.37,-0.66 c -0.16,-0.08 -0.24,-0.12 -0.24,-0.27 0,-0.15 0.13,-0.28 0.27,-0.28 0.07,0 0.09,0 0.33,0.19 l 1.12,0.8 -0.15,-1.67 c 0,-0.21 0.18,-0.26 0.26,-0.26 0.12,0 0.27,0.07 0.27,0.26 l -0.15,1.67 1.28,-0.92 c 0.09,-0.05 0.11,-0.07 0.17,-0.07 0.14,0 0.27,0.14 0.27,0.28 0,0.15 -0.09,0.2 -0.21,0.26 -0.59,0.29 -0.61,0.29 -1.4,0.66 l 1.37,0.67 c 0.16,0.08 0.24,0.12 0.24,0.27 0,0.15 -0.13,0.28 -0.27,0.28 -0.06,0 -0.08,0 -0.33,-0.19 l -1.12,-0.81 z"
         id="path4983"
         inkscape:connector-curvature="0"
         style="fill:#000000;stroke-width:0" /><path
         d="m 157.23,715.48 0,0.01 0,0.01 0,0.01 0,0 0,0.01 0,0.01 0,0.01 0,0 -0.01,0.01 0,0.01 0,0 0,0.01 0,0 0,0.01 0,0.01 0,0 0,0.01 0,0 0,0.01 -0.01,0.01 0,0.01 0,0 -0.01,0.01 0,0 -0.01,0.01 0,0 -0.01,0.01 0,0 -0.01,0 -0.01,0.01 -0.01,0 -0.01,0 0,0 -0.01,0 0,0 -0.01,0 -0.01,0 0,0 -0.01,0 0,0 -0.01,0.01 -0.01,0 -0.01,0 0,0 -0.01,0 -0.01,0 -0.01,0 -0.01,0 0,0 -0.01,0 c -0.45,-0.44 -1.08,-0.45 -1.37,-0.45 l 0,-0.25 c 0.17,0 0.63,0 1.01,0.19 l 0,-3.55 c 0,-0.23 0,-0.32 -0.7,-0.32 l -0.26,0 0,-0.26 c 0.12,0.01 0.98,0.03 1.24,0.03 0.22,0 1.1,-0.02 1.25,-0.03 l 0,0.26 -0.27,0 c -0.69,0 -0.69,0.09 -0.69,0.32 z"
         id="path4985"
         inkscape:connector-curvature="0"
         style="fill:#000000;stroke-width:0" /><line
         x1="154.89"
         y1="709.62"
         x2="158.86"
         y2="709.62"
         id="line4987"
         style="fill:#000000;stroke-width:0.398" /><path
         d="m 158.41,704.96 -0.23,0 c -0.03,-0.16 -0.1,-0.57 -0.19,-0.64 -0.05,-0.04 -0.59,-0.04 -0.69,-0.04 l -1.28,0 c 0.73,0.65 0.98,0.84 1.39,1.17 0.52,0.41 1,0.85 1,1.51 0,0.84 -0.74,1.36 -1.63,1.36 -0.87,0 -1.45,-0.61 -1.45,-1.25 0,-0.36 0.3,-0.39 0.37,-0.39 0.17,0 0.37,0.12 0.37,0.37 0,0.12 -0.05,0.37 -0.41,0.37 0.21,0.49 0.69,0.65 1.02,0.65 0.69,0 1.06,-0.55 1.06,-1.11 0,-0.61 -0.44,-1.09 -0.66,-1.34 l -1.68,-1.66 c -0.07,-0.06 -0.07,-0.08 -0.07,-0.27 l 2.87,0 z"
         id="path4989"
         inkscape:connector-curvature="0"
         style="fill:#000000;stroke-width:0" /></g>    <path
       style="fill:none;fill-rule:evenodd;stroke:#31bd18;stroke-width:0.72630411px;stroke-linecap:butt;stroke-linejoin:miter;stroke-opacity:1;marker-end:url(#marker18393-73)"
       d="m 159.8623,352.31635 0,26.37588"
       id="path18327-1"
       inkscape:connector-curvature="0" />
    <g
       style="font-style:normal;font-variant:normal;font-weight:normal;font-stretch:normal;letter-spacing:normal;word-spacing:normal;text-anchor:start;fill:#000000;fill-opacity:1;fill-rule:evenodd;stroke:#000000;stroke-linecap:butt;stroke-linejoin:miter;stroke-miterlimit:10.43299961;stroke-dasharray:none;stroke-dashoffset:0;stroke-opacity:1"
       id="g5682"
       transform="matrix(1.9479911,0,0,-1.9479911,83.567857,1508.3417)"
       xml:space="preserve"
       stroke-miterlimit="10.433"
       font-style="normal"
       font-variant="normal"
       font-weight="normal"
       font-stretch="normal"
       font-size-adjust="none"
       letter-spacing="normal"
       word-spacing="normal"
       ns0:version="0.7.2"
       ns0:texconverter="pdflatex"
       ns0:pdfconverter="pstoedit"
       ns0:text="\\large \\textcircled{\\small 1}"
       ns0:preamble="/home/martin/.config/inkscape/extensions/default_packages.tex"
       ns0:scale="10.0"
       ns0:alignment="middle center"
       ns0:inkscapeversion="0.91"
       ns0:jacobian_sqrt="12.5"><path
         style="fill:#000000;stroke-width:0"
         inkscape:connector-curvature="0"
         d="m 155.11,713.21 0,0.01 0,0.01 0,0.01 0,0.01 0,0.01 0,0.01 0,0.01 0,0.01 0,0 0,0.01 0,0.01 0,0.01 0,0 0,0.01 0,0.01 0,0 -0.01,0.02 0,0.01 0,0.01 0,0.01 -0.01,0.01 0,0 -0.01,0.01 0,0.01 -0.01,0 0,0.01 -0.01,0 -0.01,0.01 -0.01,0 -0.01,0 0,0 -0.01,0.01 -0.01,0 0,0 -0.01,0 0,0 -0.01,0 -0.01,0 0,0 -0.01,0 -0.01,0 -0.01,0 -0.01,0 0,0 -0.01,0 -0.01,0 -0.01,0 -0.01,0 -0.01,0 -0.01,0 c -0.56,-0.57 -1.38,-0.57 -1.66,-0.57 l 0,-0.28 c 0.17,0 0.72,0 1.2,0.24 l 0,-4.64 c 0,-0.33 -0.03,-0.44 -0.86,-0.44 l -0.29,0 0,-0.28 c 0.33,0.03 1.12,0.03 1.49,0.03 0.37,0 1.18,0 1.5,-0.03 l 0,0.28 -0.29,0 c -0.83,0 -0.86,0.11 -0.86,0.44 z"
         id="path5684" /><path
         style="fill:#000000;stroke-width:0"
         inkscape:connector-curvature="0"
         d="m 160,710.11 -0.48,0 c 0,-2.84 -2.19,-5.09 -4.83,-5.09 l 0,0 c -2.68,0 -4.84,2.27 -4.84,5.09 0,2.85 2.18,5.09 4.83,5.09 2.67,0 4.84,-2.27 4.84,-5.09 l 0.48,0 c 0,3.12 -2.42,5.57 -5.31,5.57 -2.93,0 -5.32,-2.47 -5.32,-5.57 0,-3.12 2.41,-5.57 5.31,-5.57 2.92,0 5.32,2.48 5.32,5.57 z"
         id="path5686" /></g>    <g
       ns0:jacobian_sqrt="12.5"
       ns0:inkscapeversion="0.91"
       ns0:alignment="middle center"
       ns0:scale="10.0"
       ns0:preamble="/home/martin/.config/inkscape/extensions/default_packages.tex"
       ns0:text="\\large \\textcircled{\\small 2}"
       ns0:pdfconverter="pstoedit"
       ns0:texconverter="pdflatex"
       ns0:version="0.7.2"
       word-spacing="normal"
       letter-spacing="normal"
       font-size-adjust="none"
       font-stretch="normal"
       font-weight="normal"
       font-variant="normal"
       font-style="normal"
       stroke-miterlimit="10.433"
       xml:space="preserve"
       transform="matrix(1.8951098,0,0,-1.8951098,-60.599793,1626.6165)"
       id="g5956"
       style="font-style:normal;font-variant:normal;font-weight:normal;font-stretch:normal;letter-spacing:normal;word-spacing:normal;text-anchor:start;fill:#000000;fill-opacity:1;fill-rule:evenodd;stroke:#000000;stroke-linecap:butt;stroke-linejoin:miter;stroke-miterlimit:10.43299961;stroke-dasharray:none;stroke-dashoffset:0;stroke-opacity:1"><path
         id="path5958"
         d="m 156.53,709.07 -0.25,0 c -0.02,-0.12 -0.09,-0.65 -0.21,-0.79 -0.05,-0.08 -0.67,-0.08 -0.85,-0.08 l -1.6,0 0.89,0.84 c 1.47,1.28 2.02,1.75 2.02,2.67 0,1.03 -0.85,1.74 -1.96,1.74 -1.03,0 -1.73,-0.81 -1.73,-1.63 0,-0.45 0.39,-0.49 0.47,-0.49 0.2,0 0.46,0.14 0.46,0.46 0,0.27 -0.18,0.47 -0.46,0.47 -0.05,0 -0.07,0 -0.11,-0.01 0.22,0.64 0.79,0.93 1.27,0.93 0.92,0 1.23,-0.86 1.23,-1.47 0,-0.92 -0.69,-1.66 -1.12,-2.13 l -1.64,-1.78 c -0.1,-0.09 -0.1,-0.11 -0.1,-0.32 l 3.44,0 z"
         inkscape:connector-curvature="0"
         style="fill:#000000;stroke-width:0" /><path
         id="path5960"
         d="m 160,710.11 -0.48,0 c 0,-2.84 -2.19,-5.09 -4.83,-5.09 l 0,0 c -2.68,0 -4.84,2.27 -4.84,5.09 0,2.85 2.18,5.09 4.83,5.09 2.67,0 4.84,-2.27 4.84,-5.09 l 0.48,0 c 0,3.12 -2.42,5.57 -5.31,5.57 -2.93,0 -5.32,-2.47 -5.32,-5.57 0,-3.12 2.41,-5.57 5.31,-5.57 2.92,0 5.32,2.48 5.32,5.57 z"
         inkscape:connector-curvature="0"
         style="fill:#000000;stroke-width:0" /></g>    <flowRoot
       xml:space="preserve"
       id="flowRoot4513-29"
       style="font-style:normal;font-weight:normal;font-size:5px;line-height:125%;font-family:sans-serif;letter-spacing:0px;word-spacing:0px;fill:#000000;fill-opacity:1;stroke:none;stroke-width:1px;stroke-linecap:butt;stroke-linejoin:miter;stroke-opacity:1"
       transform="translate(-91.833785,172.44936)"><flowRegion
         id="flowRegion4515-3"><rect
           id="rect4517-19"
           width="290"
           height="30"
           x="340"
           y="97.362206" /></flowRegion><flowPara
         id="flowPara4519-4"
         style="font-size:15px">compute output element</flowPara></flowRoot>    <flowRoot
       xml:space="preserve"
       id="flowRoot3383-4"
       style="font-style:normal;font-weight:normal;font-size:35px;line-height:125%;font-family:sans-serif;letter-spacing:0px;word-spacing:0px;fill:#31bd18;fill-opacity:1;stroke:none;stroke-width:1px;stroke-linecap:butt;stroke-linejoin:miter;stroke-opacity:1"
       transform="translate(-365.01789,194.84438)"><flowRegion
         id="flowRegion3385-9"><rect
           id="rect3387-2"
           width="275"
           height="85"
           x="630"
           y="92.362206"
           style="font-size:35px;fill:#31bd18;fill-opacity:1;stroke:none;stroke-opacity:1" /></flowRegion><flowPara
         style="font-size:15px;line-height:125%;fill:#31bd18;fill-opacity:1;stroke:none;stroke-opacity:1"
         id="flowPara9643-0">using Map(Reduce )</flowPara></flowRoot>    <flowRoot
       xml:space="preserve"
       id="flowRoot3383-4-9"
       style="font-style:normal;font-weight:normal;font-size:35px;line-height:125%;font-family:sans-serif;letter-spacing:0px;word-spacing:0px;fill:#31bd18;fill-opacity:1;stroke:none;stroke-width:1px;stroke-linecap:butt;stroke-linejoin:miter;stroke-opacity:1"
       transform="translate(-228.68165,204.36428)"><flowRegion
         id="flowRegion3385-9-4"><rect
           id="rect3387-2-9"
           width="275"
           height="85"
           x="630"
           y="92.362206"
           style="font-size:35px;fill:#31bd18;fill-opacity:1;stroke:none;stroke-opacity:1" /></flowRegion><flowPara
         style="font-size:10px;line-height:125%;fill:#31bd18;fill-opacity:1;stroke:none;stroke-opacity:1"
         id="flowPara9643-0-0">+</flowPara></flowRoot>    <flowRoot
       xml:space="preserve"
       id="flowRoot4513-2-6"
       style="font-style:normal;font-weight:normal;font-size:5px;line-height:125%;font-family:sans-serif;letter-spacing:0px;word-spacing:0px;fill:#000000;fill-opacity:1;stroke:none;stroke-width:1px;stroke-linecap:butt;stroke-linejoin:miter;stroke-opacity:1"
       transform="translate(377.41491,272.8906)"><flowRegion
         id="flowRegion4515-6-7"><rect
           id="rect4517-1-5"
           width="290"
           height="30"
           x="340"
           y="97.362206" /></flowRegion><flowPara
         id="flowPara4519-8-3"
         style="font-size:15px">output</flowPara><flowPara
         style="font-size:15px"
         id="flowPara4379-5" /></flowRoot>  </g>
</svg>
